<svg xmlns="http://www.w3.org/2000/svg" version="1.1" viewBox="924.66 402.65 1786.5 1309.09">
  <g id="surface1" transform="matrix(1, 0, 0, 1, 12.965964, -25.931929)">
    <path style=" stroke:none;fill-rule:nonzero;fill:rgb(31.37207%,74.804688%,64.646912%);fill-opacity:1;" d="M 1590.570313 677.070313 L 1576.550781 681.371094 L 1567.140625 659.578125 L 1545.871094 663.351563 L 1536.160156 648.191406 L 1528.480469 653.109375 L 1541.46875 673.378906 L 1561.628906 669.808594 L 1571.421875 692.480469 L 1592.519531 686 L 1590.570313 677.070313 "/>
    <path style=" stroke:none;fill-rule:nonzero;fill:rgb(31.37207%,74.804688%,64.646912%);fill-opacity:1;" d="M 2489.480469 1460.78125 L 2475.460938 1465.078125 L 2466.050781 1443.289063 L 2444.78125 1447.058594 L 2435.070313 1431.898438 L 2427.398438 1436.820313 L 2440.378906 1457.078125 L 2460.539063 1453.519531 L 2470.328125 1476.191406 L 2491.429688 1469.710938 L 2489.480469 1460.78125 "/>
    <path style=" stroke:none;fill-rule:nonzero;fill:rgb(31.37207%,74.804688%,64.646912%);fill-opacity:1;" d="M 1504.199219 1718.75 C 1504.199219 1718.75 1429.398438 1465.230469 1423.398438 1409.308594 C 1417.398438 1353.378906 1459.230469 1370.710938 1459.230469 1370.710938 C 1459.230469 1370.710938 1424.039063 1264.148438 1449.480469 1238.859375 C 1474.929688 1213.570313 1497.878906 1260.710938 1497.878906 1260.710938 C 1497.878906 1260.710938 1505.578125 1131.351563 1532.710938 1131.308594 C 1583.230469 1131.21875 1582.238281 1272.378906 1582.238281 1272.378906 C 1582.238281 1272.378906 1595.128906 1217.121094 1622.191406 1232.269531 C 1662.988281 1255.121094 1604.480469 1365.878906 1604.480469 1365.878906 C 1604.480469 1365.878906 1656.46875 1365.910156 1674.730469 1392.128906 C 1707.5 1439.160156 1504.199219 1718.75 1504.199219 1718.75 "/>
    <path style=" stroke:none;fill-rule:nonzero;fill:rgb(31.37207%,74.804688%,64.646912%);fill-opacity:1;" d="M 1528.648438 1685.199219 C 1528.648438 1685.199219 1313.019531 1649.140625 1266.121094 1610.929688 C 1219.21875 1572.71875 1265.640625 1555.5 1265.640625 1555.5 C 1265.640625 1555.5 1157.320313 1499.96875 1158.570313 1462.210938 C 1159.828125 1424.449219 1213.640625 1443.648438 1213.640625 1443.648438 C 1213.640625 1443.648438 1122.371094 1339.570313 1143.980469 1319.800781 C 1184.21875 1282.988281 1289.738281 1391.179688 1289.738281 1391.179688 C 1289.738281 1391.179688 1258.410156 1339.730469 1291.398438 1331.578125 C 1341.171875 1319.308594 1377.890625 1446.171875 1377.890625 1446.171875 C 1377.890625 1446.171875 1368.558594 1396.070313 1402.871094 1402.75 C 1464.441406 1414.71875 1528.648438 1685.199219 1528.648438 1685.199219 "/>
    <path style=" stroke:none;fill-rule:nonzero;fill:rgb(23.535156%,56.054688%,48.631287%);fill-opacity:1;" d="M 1402.871094 1402.75 C 1368.480469 1396.53125 1377.890625 1446.171875 1377.890625 1446.171875 C 1377.890625 1446.171875 1341.171875 1319.308594 1291.398438 1331.578125 C 1258.410156 1339.730469 1289.738281 1391.179688 1289.738281 1391.179688 C 1289.738281 1391.179688 1184.21875 1282.988281 1143.980469 1319.800781 L 1527.929688 1685.261719 C 1521.089844 1650.351563 1460.539063 1413.171875 1402.871094 1402.75 "/>
    <path style=" stroke:none;fill-rule:nonzero;fill:rgb(20.776367%,32.542419%,53.709412%);fill-opacity:1;" d="M 1590 1714.941406 C 1590 1714.941406 1476.441406 1599.460938 1419.261719 1587.429688 C 1362.070313 1575.410156 1372.359375 1616.089844 1372.359375 1616.089844 C 1372.359375 1616.089844 1258.898438 1516.871094 1232.601563 1540.910156 C 1206.308594 1564.949219 1234.75 1588.160156 1234.75 1588.160156 C 1234.75 1588.160156 1140.238281 1571.421875 1126.71875 1602.429688 C 1105.929688 1650.078125 1261.359375 1676.019531 1261.359375 1676.019531 C 1261.359375 1676.019531 1196.21875 1680.539063 1211.328125 1710.421875 C 1234.109375 1755.480469 1590 1714.941406 1590 1714.941406 "/>
    <path style=" stroke:none;fill-rule:nonzero;fill:rgb(27.43988%,43.138123%,71.289063%);fill-opacity:1;" d="M 1126.71875 1602.429688 C 1140.238281 1571.421875 1234.75 1588.160156 1234.75 1588.160156 C 1234.75 1588.160156 1206.308594 1564.949219 1232.601563 1540.910156 C 1258.898438 1516.871094 1368.828125 1602.601563 1368.828125 1602.601563 C 1368.828125 1602.601563 1342.910156 1553.050781 1400.089844 1565.078125 C 1457.28125 1577.109375 1590 1714.941406 1590 1714.941406 L 1126.71875 1602.429688 "/>
    <path style=" stroke:none;fill-rule:nonzero;fill:rgb(96.875%,80.076599%,49.804688%);fill-opacity:1;" d="M 1770.789063 523.910156 C 1732.558594 530.191406 1721.210938 580.359375 1752.988281 602.800781 C 1758.699219 606.828125 1762.648438 612.890625 1764.328125 619.679688 L 1770.109375 643.011719 C 1771.710938 649.441406 1777.96875 653.570313 1784.511719 652.5 L 1798.988281 650.109375 C 1805.53125 649.039063 1810.148438 643.121094 1809.589844 636.519531 C 1807.578125 612.421875 1805.101563 603.691406 1812.929688 592.941406 C 1835.839844 561.511719 1809.019531 517.609375 1770.789063 523.910156 "/>
    <path style=" stroke:none;fill-rule:nonzero;fill:rgb(98.046875%,87.889099%,69.726563%);fill-opacity:1;" d="M 1792.539063 557.621094 C 1791.351563 560.359375 1791.800781 563.859375 1792.078125 567.890625 C 1795.210938 566.109375 1798.839844 563.890625 1800.019531 560.621094 C 1800.851563 558.328125 1799.921875 555.101563 1797.589844 554.5 C 1797.328125 554.441406 1793.378906 555.699219 1792.539063 557.621094 Z M 1757.109375 572.421875 C 1759.058594 574.511719 1762.320313 575.441406 1767.078125 575.21875 C 1766.261719 571.710938 1765.039063 568.558594 1762.628906 566.320313 C 1757.191406 561.261719 1753.851563 568.898438 1757.109375 572.421875 Z M 1774.691406 625.898438 C 1772.199219 605.261719 1768.710938 583.460938 1767.519531 577.28125 C 1745.609375 578.488281 1753.941406 555.398438 1764.050781 564.789063 C 1766.929688 567.460938 1768.289063 571.089844 1769.191406 575.070313 C 1776.460938 574.410156 1783.578125 572.339844 1790.058594 568.988281 C 1789.710938 563.898438 1789.210938 560.039063 1790.628906 556.78125 C 1792.78125 551.859375 1799.011719 550.519531 1801.550781 555.320313 C 1802.5 557.121094 1802.671875 559.421875 1801.980469 561.328125 C 1800.511719 565.398438 1796.089844 568.089844 1792.230469 570.191406 C 1793.390625 586.601563 1794.980469 603.140625 1796.988281 619.421875 L 1794.929688 619.679688 C 1792.949219 603.660156 1791.371094 587.390625 1790.21875 571.238281 C 1783.78125 574.441406 1776.78125 576.449219 1769.609375 577.121094 C 1771.109375 585.03125 1774.421875 606.269531 1776.761719 625.648438 L 1774.691406 625.898438 "/>
    <path style=" stroke:none;fill-rule:nonzero;fill:rgb(58.789063%,85.15625%,78.90625%);fill-opacity:1;" d="M 1764.160156 619.101563 C 1764.210938 619.289063 1764.28125 619.480469 1764.328125 619.679688 L 1770.109375 643.011719 C 1771.710938 649.441406 1777.96875 653.570313 1784.511719 652.5 L 1798.988281 650.109375 C 1805.53125 649.039063 1810.148438 643.121094 1809.589844 636.519531 C 1808.699219 625.800781 1807.710938 618.121094 1807.578125 611.960938 L 1764.160156 619.101563 "/>
    <path style=" stroke:none;fill-rule:nonzero;fill:rgb(98.046875%,87.889099%,69.726563%);fill-opacity:1;" d="M 1742.449219 506.480469 L 1731.019531 485.609375 C 1729.921875 483.601563 1730.660156 481.058594 1732.679688 479.960938 C 1734.699219 478.851563 1737.230469 479.589844 1738.339844 481.609375 L 1749.769531 502.46875 C 1750.871094 504.488281 1750.128906 507.03125 1748.109375 508.128906 C 1746.078125 509.238281 1743.550781 508.488281 1742.449219 506.480469 "/>
    <path style=" stroke:none;fill-rule:nonzero;fill:rgb(98.046875%,87.889099%,69.726563%);fill-opacity:1;" d="M 1717.46875 556.949219 L 1692.550781 554.769531 C 1690.261719 554.570313 1688.558594 552.550781 1688.769531 550.25 C 1688.96875 547.960938 1690.988281 546.261719 1693.28125 546.460938 L 1718.199219 548.640625 C 1720.488281 548.839844 1722.191406 550.859375 1721.988281 553.160156 C 1721.789063 555.449219 1719.769531 557.148438 1717.46875 556.949219 "/>
    <path style=" stroke:none;fill-rule:nonzero;fill:rgb(98.046875%,87.889099%,69.726563%);fill-opacity:1;" d="M 1692.769531 633.328125 C 1691.148438 631.691406 1691.160156 629.058594 1692.800781 627.441406 C 1698.929688 621.390625 1705.660156 615.890625 1712.820313 611.109375 C 1714.730469 609.828125 1717.320313 610.339844 1718.601563 612.261719 C 1719.878906 614.171875 1719.371094 616.761719 1717.449219 618.039063 C 1710.730469 622.53125 1704.410156 627.691406 1698.660156 633.371094 C 1697.03125 634.980469 1694.390625 634.980469 1692.769531 633.328125 "/>
    <path style=" stroke:none;fill-rule:nonzero;fill:rgb(98.046875%,87.889099%,69.726563%);fill-opacity:1;" d="M 1804.011719 505.351563 C 1801.789063 504.761719 1800.46875 502.46875 1801.058594 500.25 C 1803.878906 489.691406 1805.609375 478.789063 1806.199219 467.878906 C 1806.328125 465.578125 1808.289063 463.808594 1810.589844 463.941406 C 1812.890625 464.058594 1814.648438 466.019531 1814.53125 468.320313 C 1813.910156 479.820313 1812.089844 491.28125 1809.121094 502.398438 C 1808.519531 504.640625 1806.21875 505.941406 1804.011719 505.351563 "/>
    <path style=" stroke:none;fill-rule:nonzero;fill:rgb(98.046875%,87.889099%,69.726563%);fill-opacity:1;" d="M 1829.671875 537.378906 C 1829.011719 535.171875 1830.25 532.851563 1832.460938 532.191406 L 1858.359375 524.378906 C 1860.570313 523.710938 1862.890625 524.960938 1863.558594 527.171875 C 1864.21875 529.371094 1862.96875 531.699219 1860.769531 532.359375 L 1834.871094 540.171875 C 1832.671875 540.828125 1830.339844 539.589844 1829.671875 537.378906 "/>
    <path style=" stroke:none;fill-rule:nonzero;fill:rgb(98.046875%,87.889099%,69.726563%);fill-opacity:1;" d="M 1872.21875 606.300781 C 1871.851563 606.300781 1871.46875 606.25 1871.089844 606.148438 C 1862.109375 603.621094 1853.390625 600.121094 1845.148438 595.75 C 1843.121094 594.671875 1842.351563 592.140625 1843.429688 590.109375 C 1844.511719 588.078125 1847.03125 587.308594 1849.058594 588.390625 C 1856.769531 592.480469 1864.941406 595.761719 1873.351563 598.121094 C 1875.558594 598.738281 1876.851563 601.039063 1876.230469 603.261719 C 1875.710938 605.101563 1874.039063 606.300781 1872.21875 606.300781 "/>
    <path style=" stroke:none;fill-rule:nonzero;fill:rgb(96.875%,80.076599%,49.804688%);fill-opacity:1;" d="M 2251.609375 790.601563 L 2238.539063 759.691406 L 2205.679688 752.941406 C 2201.941406 752.171875 2200.699219 747.441406 2203.589844 744.941406 L 2228.941406 722.960938 L 2225.199219 689.621094 C 2224.78125 685.820313 2228.890625 683.191406 2232.171875 685.160156 L 2260.898438 702.480469 L 2291.460938 688.621094 C 2294.941406 687.050781 2298.71875 690.140625 2297.851563 693.871094 L 2290.261719 726.550781 L 2312.878906 751.328125 C 2315.460938 754.148438 2313.679688 758.699219 2309.871094 759.03125 L 2276.441406 761.910156 L 2259.871094 791.078125 C 2257.980469 794.398438 2253.101563 794.109375 2251.609375 790.601563 "/>
    <path style=" stroke:none;fill-rule:nonzero;fill:rgb(95.701599%,54.881287%,49.804688%);fill-opacity:1;" d="M 2459.640625 684.570313 L 2454.269531 706.199219 L 2418.5 701.398438 L 2406.75 732.058594 L 2379.398438 732.851563 L 2379.800781 746.691406 L 2416.371094 745.640625 L 2427.519531 716.589844 L 2464.71875 721.578125 L 2472.800781 689.019531 L 2459.640625 684.570313 "/>
    <path style=" stroke:none;fill-rule:nonzero;fill:rgb(71.679688%,34.104919%,25.87738%);fill-opacity:1;" d="M 2141.011719 1721.589844 L 1512.359375 1721.589844 C 1488.351563 1721.589844 1468.890625 1701.398438 1468.890625 1676.5 L 1468.890625 1649.679688 C 1468.890625 1624.78125 1488.351563 1604.589844 1512.359375 1604.589844 L 2141.011719 1604.589844 C 2112.261719 1637.191406 2111.761719 1687.011719 2139.859375 1720.230469 L 2141.011719 1721.589844 "/>
    <path style=" stroke:none;fill-rule:nonzero;fill:rgb(98.046875%,87.889099%,69.726563%);fill-opacity:1;" d="M 2131.308594 1618 L 1782.621094 1618 C 1758.609375 1618 1739.148438 1638.191406 1739.148438 1663.089844 C 1739.148438 1688 1758.609375 1708.179688 1782.621094 1708.179688 L 2131.339844 1708.179688 C 2115.039063 1680.519531 2115.070313 1645.589844 2131.308594 1618 "/>
    <path style=" stroke:none;fill-rule:nonzero;fill:rgb(52.539063%,69.334412%,94.921875%);fill-opacity:1;" d="M 1920.160156 1523.328125 C 1921.070313 1521.621094 1919.679688 1519.628906 1917.570313 1519.628906 L 1584.929688 1519.628906 C 1558.851563 1519.628906 1537.71875 1538.648438 1537.71875 1562.121094 C 1537.71875 1585.578125 1558.851563 1604.609375 1584.929688 1604.609375 L 1917.660156 1604.609375 C 1919.78125 1604.609375 1921.179688 1602.609375 1920.25 1600.890625 C 1907.078125 1576.328125 1907.109375 1547.78125 1920.160156 1523.328125 "/>
    <path style=" stroke:none;fill-rule:nonzero;fill:rgb(96.875%,80.076599%,49.804688%);fill-opacity:1;" d="M 1918.058594 1527.539063 L 1753.199219 1527.539063 C 1722.601563 1527.539063 1697.800781 1543.480469 1697.800781 1563.140625 C 1697.800781 1582.808594 1722.601563 1598.75 1753.199219 1598.75 L 1919.140625 1598.75 C 1907.800781 1576.089844 1907.488281 1550.289063 1918.058594 1527.539063 "/>
    <path style=" stroke:none;fill-rule:nonzero;fill:rgb(71.679688%,34.104919%,25.87738%);fill-opacity:1;" d="M 1875.480469 1544.421875 L 1854.011719 1544.421875 C 1849.398438 1544.421875 1845.648438 1545.96875 1845.648438 1547.878906 L 1845.648438 1548.191406 L 1875.480469 1548.191406 L 1875.480469 1544.421875 "/>
    <path style=" stroke:none;fill-rule:nonzero;fill:rgb(95.701599%,45.483398%,34.521484%);fill-opacity:1;" d="M 1893.800781 1553.101563 C 1893.800781 1548.300781 1888.191406 1544.421875 1881.269531 1544.421875 L 1853.71875 1544.421875 C 1858.96875 1544.421875 1863.21875 1547.371094 1863.21875 1551 L 1863.089844 1644.089844 L 1878.308594 1632.121094 L 1893.828125 1644.089844 L 1893.800781 1553.101563 "/>
    <path style=" stroke:none;fill-rule:nonzero;fill:rgb(98.046875%,87.889099%,69.726563%);fill-opacity:1;" d="M 1859 1516.570313 L 1665.449219 1516.570313 C 1648.289063 1516.570313 1634.378906 1500.050781 1634.378906 1479.679688 C 1634.378906 1459.308594 1648.289063 1442.800781 1665.449219 1442.800781 L 1859 1442.800781 C 1844.210938 1463.25 1843.628906 1493.238281 1857.621094 1514.46875 L 1859 1516.570313 "/>
    <path style=" stroke:none;fill-rule:nonzero;fill:rgb(27.43988%,43.138123%,71.289063%);fill-opacity:1;" d="M 1634.398438 1479.679688 C 1634.398438 1459.308594 1648.640625 1442.800781 1666.210938 1442.800781 L 1862.691406 1442.800781 C 1863.609375 1442.800781 1864.351563 1441.929688 1864.339844 1440.871094 C 1864.328125 1439.820313 1863.589844 1438.980469 1862.691406 1438.980469 L 1550.988281 1438.980469 C 1531.609375 1438.980469 1515.890625 1457.199219 1515.890625 1479.679688 C 1515.890625 1502.171875 1531.609375 1520.390625 1550.988281 1520.390625 L 1862.691406 1520.390625 C 1863.589844 1520.390625 1864.328125 1519.539063 1864.339844 1518.5 C 1864.351563 1517.429688 1863.601563 1516.570313 1862.691406 1516.570313 L 1666.210938 1516.570313 C 1648.640625 1516.570313 1634.398438 1500.050781 1634.398438 1479.679688 "/>
    <path style=" stroke:none;fill-rule:nonzero;fill:rgb(9.423828%,27.43988%,33.325195%);fill-opacity:1;" d="M 1825.199219 1460.921875 L 1803.730469 1460.921875 C 1799.121094 1460.921875 1795.371094 1462.449219 1795.371094 1464.320313 L 1795.371094 1464.628906 L 1825.199219 1464.628906 L 1825.199219 1460.921875 "/>
    <path style=" stroke:none;fill-rule:nonzero;fill:rgb(23.535156%,56.054688%,48.631287%);fill-opacity:1;" d="M 1843.519531 1469.441406 C 1843.519531 1464.738281 1837.910156 1460.921875 1830.988281 1460.921875 L 1803.441406 1460.921875 C 1808.691406 1460.921875 1812.941406 1463.820313 1812.941406 1467.378906 L 1812.808594 1558.671875 L 1828.03125 1546.929688 L 1843.550781 1558.671875 L 1843.519531 1469.441406 "/>
    <path style=" stroke:none;fill-rule:nonzero;fill:rgb(9.423828%,27.43988%,33.325195%);fill-opacity:1;" d="M 2167.378906 897.050781 L 2195.949219 889.53125 L 2176.589844 1147.828125 L 2142.308594 1148.96875 L 2159.601563 906.429688 C 2159.921875 901.960938 2163.050781 898.191406 2167.378906 897.050781 "/>
    <path style=" stroke:none;fill-rule:nonzero;fill:rgb(96.875%,80.076599%,49.804688%);fill-opacity:1;" d="M 2179.148438 1155.191406 C 2178.511719 1155.25 2177.859375 1155.238281 2177.191406 1155.160156 C 2171.519531 1154.488281 2167.320313 1148.851563 2167.808594 1142.558594 L 2186.828125 899.679688 C 2187.320313 893.390625 2192.320313 888.828125 2198 889.5 C 2203.671875 890.171875 2207.871094 895.808594 2207.378906 902.109375 L 2188.359375 1144.988281 C 2187.921875 1150.539063 2183.96875 1154.75 2179.148438 1155.191406 "/>
    <path style=" stroke:none;fill-rule:nonzero;fill:rgb(96.875%,80.076599%,49.804688%);fill-opacity:1;" d="M 1916.179688 1168.128906 C 1916.191406 1168.308594 1916.199219 1168.480469 1916.21875 1168.660156 C 1917.109375 1178.539063 1924.769531 1185.941406 1933.308594 1185.171875 L 2174.621094 1163.570313 C 2183.171875 1162.808594 2189.371094 1154.179688 2188.480469 1144.300781 C 2188.441406 1143.878906 2188.390625 1143.46875 2188.320313 1143.058594 L 1916.179688 1168.128906 "/>
    <path style=" stroke:none;fill-rule:nonzero;fill:rgb(96.875%,64.256287%,56.834412%);fill-opacity:1;" d="M 2084.210938 1429.011719 C 2068.410156 1437.769531 2020.109375 1422.410156 2020.109375 1421.019531 C 2019.421875 1434.21875 1966.03125 1563.421875 1966.03125 1563.421875 L 1966.070313 1603.171875 C 1966.070313 1603.171875 2076.078125 1608.410156 2074.5 1598.691406 C 2072.921875 1588.96875 2067 1595.289063 2045.058594 1576.929688 C 2043.109375 1575.300781 2012.300781 1568.148438 2020.628906 1549.910156 C 2037.429688 1513.179688 2073.089844 1451.941406 2084.210938 1429.011719 "/>
    <path style=" stroke:none;fill-rule:nonzero;fill:rgb(23.535156%,56.054688%,48.631287%);fill-opacity:1;" d="M 1962.449219 1604.589844 L 2082.878906 1604.621094 C 2087.21875 1604.179688 2088.238281 1600.640625 2086.699219 1598.488281 C 2083.539063 1594.070313 2060.460938 1583.628906 2044.949219 1576.710938 C 2017.929688 1579.859375 1970.429688 1569.46875 1966.078125 1563.308594 C 1954.640625 1578.628906 1960.03125 1604.089844 1962.449219 1604.589844 "/>
    <path style=" stroke:none;fill-rule:nonzero;fill:rgb(20.776367%,32.542419%,53.709412%);fill-opacity:1;" d="M 1936.039063 1336.25 C 1934.410156 1331.359375 2039.71875 1286.671875 2044.429688 1291.78125 C 2052.769531 1300.808594 1987.449219 1470.351563 1987.449219 1470.351563 L 2062.5 1493.28125 C 2062.5 1493.28125 2140.511719 1297.410156 2137.25 1261.578125 C 2134 1225.761719 2094.921875 1185.050781 2010.238281 1211.101563 C 1925.558594 1237.160156 1936.039063 1336.25 1936.039063 1336.25 "/>
    <path style=" stroke:none;fill-rule:nonzero;fill:rgb(96.875%,64.256287%,56.834412%);fill-opacity:1;" d="M 2154.078125 1451.289063 C 2136.300781 1448.058594 2113.261719 1447.140625 2094.808594 1446.820313 C 2096.988281 1463.238281 2107.539063 1547.449219 2105.609375 1552.628906 C 2097.800781 1573.589844 2080.460938 1583.398438 2080.460938 1583.398438 C 2080.460938 1583.398438 2162.230469 1657.179688 2167.160156 1648.660156 C 2172.101563 1640.140625 2163.519531 1641.28125 2158.179688 1613.171875 C 2157.710938 1610.671875 2145.878906 1571.429688 2145.148438 1550.269531 C 2143.75 1509.910156 2153.46875 1473.710938 2154.078125 1451.289063 "/>
    <path style=" stroke:none;fill-rule:nonzero;fill:rgb(27.43988%,43.138123%,71.289063%);fill-opacity:1;" d="M 2127.839844 1175.789063 C 2116.429688 1169.710938 2086.820313 1169.488281 2054.261719 1171.601563 C 1990.769531 1175.71875 1928.101563 1188.210938 1867.710938 1208.21875 L 1827.300781 1221.601563 L 1827.429688 1180.171875 C 1827.429688 1180.171875 1698.871094 1158.660156 1694.390625 1190.519531 C 1687.660156 1238.5 1696.019531 1335.921875 1738.851563 1357.660156 C 1871.898438 1425.199219 2058.351563 1250.070313 2059.03125 1272.980469 C 2059.929688 1303.75 2085.871094 1418.261719 2092.511719 1468.390625 C 2110.949219 1468.710938 2142.640625 1468.699219 2156.390625 1465.539063 C 2159.058594 1367.328125 2160.308594 1193.121094 2127.839844 1175.789063 "/>
    <path style=" stroke:none;fill-rule:nonzero;fill:rgb(23.535156%,56.054688%,48.631287%);fill-opacity:1;" d="M 2077.960938 1585.128906 L 2169.890625 1658.550781 C 2173.53125 1660.96875 2176.550781 1658.878906 2176.730469 1656.238281 C 2177.089844 1650.808594 2165.851563 1628.109375 2158.238281 1612.929688 C 2135.339844 1598.238281 2105.128906 1559.949219 2105.679688 1552.429688 C 2095.980469 1560.609375 2076.410156 1583.199219 2077.960938 1585.128906 "/>
    <path style=" stroke:none;fill-rule:nonzero;fill:rgb(7.446289%,21.556091%,35.693359%);fill-opacity:1;" d="M 1869.898438 775.300781 C 1866.820313 747.070313 1863.558594 718.738281 1840.171875 698.050781 C 1821.230469 681.308594 1797.160156 678.46875 1773.351563 687.429688 C 1705.898438 712.808594 1740.648438 772.710938 1654.648438 833.109375 C 1627.921875 851.878906 1598.46875 864.71875 1578.351563 889.988281 C 1550.179688 925.371094 1560.820313 967.910156 1586.480469 996.320313 C 1709.300781 1132.238281 1846.410156 948.679688 1856.261719 904.609375 C 1863.578125 871.828125 1871.890625 793.46875 1869.898438 775.300781 "/>
    <path style=" stroke:none;fill-rule:nonzero;fill:rgb(31.37207%,74.804688%,64.646912%);fill-opacity:1;" d="M 1844.960938 934.019531 C 1834.929688 915.53125 1824.601563 900.851563 1824.601563 900.851563 C 1814.191406 882.351563 1787.308594 873 1787.308594 873 C 1787.308594 873 1778.320313 873.179688 1767.988281 873.691406 C 1767.351563 875.398438 1766.699219 876.621094 1766.039063 877.109375 C 1762.160156 880.019531 1739.921875 876.269531 1725.558594 886.019531 C 1677.410156 927.289063 1690.730469 1127.339844 1694.511719 1190.519531 L 1841.148438 1191.910156 C 1841.148438 1191.910156 1822.660156 1055.960938 1852.449219 1021.03125 C 1873.199219 996.710938 1859.851563 961.460938 1844.960938 934.019531 "/>
    <path style=" stroke:none;fill-rule:nonzero;fill:rgb(96.875%,64.256287%,56.834412%);fill-opacity:1;" d="M 1778.871094 805.320313 C 1778.871094 805.320313 1770.808594 862.878906 1765.179688 876.871094 C 1759.550781 890.859375 1796.128906 920.769531 1826.570313 929.859375 C 1857.011719 938.941406 1817.269531 898.960938 1818.53125 884 C 1819.789063 869.050781 1825.328125 798.25 1825.328125 798.25 L 1778.871094 805.320313 "/>
    <path style=" stroke:none;fill-rule:nonzero;fill:rgb(95.701599%,45.483398%,34.521484%);fill-opacity:1;" d="M 1823.789063 818.550781 C 1824.679688 806.839844 1825.328125 798.25 1825.328125 798.25 L 1778.871094 805.320313 C 1778.871094 805.320313 1777.699219 812.078125 1776.398438 821.640625 C 1795.238281 832.570313 1812.171875 829.121094 1823.789063 818.550781 "/>
    <path style=" stroke:none;fill-rule:nonzero;fill:rgb(96.875%,64.256287%,56.834412%);fill-opacity:1;" d="M 1793.441406 700.179688 C 1793.441406 700.179688 1775.128906 704.308594 1763.820313 721.558594 C 1752.519531 738.808594 1744.761719 789.609375 1782 813.320313 C 1819.230469 837.03125 1848.191406 803.488281 1848.671875 770.78125 C 1849.148438 738.058594 1842.140625 694.410156 1793.441406 700.179688 "/>
    <path style=" stroke:none;fill-rule:nonzero;fill:rgb(96.875%,64.256287%,56.834412%);fill-opacity:1;" d="M 1857.199219 760.539063 C 1854.019531 768.429688 1847.71875 773.328125 1843.121094 771.480469 C 1838.519531 769.628906 1837.371094 761.730469 1840.550781 753.839844 C 1843.71875 745.941406 1850.019531 741.039063 1854.621094 742.898438 C 1859.21875 744.75 1860.371094 752.648438 1857.199219 760.539063 "/>
    <path style=" stroke:none;fill-rule:nonzero;fill:rgb(7.446289%,21.556091%,35.693359%);fill-opacity:1;" d="M 1798.929688 699.109375 C 1798.929688 699.109375 1775.589844 751.46875 1755.078125 756.140625 C 1734.570313 760.820313 1734.871094 787.171875 1734.871094 787.171875 C 1734.871094 787.171875 1735.320313 726.320313 1754.550781 712.371094 C 1773.769531 698.410156 1798.929688 699.109375 1798.929688 699.109375 "/>
    <path style=" stroke:none;fill-rule:nonzero;fill:rgb(96.875%,64.256287%,56.834412%);fill-opacity:1;" d="M 1763.230469 767.03125 C 1765.929688 775.53125 1763.460938 783.898438 1757.710938 785.730469 C 1751.960938 787.550781 1745.109375 782.140625 1742.410156 773.640625 C 1739.710938 765.128906 1742.179688 756.761719 1747.929688 754.941406 C 1753.679688 753.109375 1760.53125 758.519531 1763.230469 767.03125 "/>
    <path style=" stroke:none;fill-rule:nonzero;fill:rgb(96.875%,64.256287%,56.834412%);fill-opacity:1;" d="M 2025.5 1145.050781 C 2016.699219 1141.871094 2003.609375 1141.46875 2003.828125 1140.308594 C 2004.710938 1135.609375 2043.578125 1150.691406 2038.328125 1143.828125 C 2035.398438 1140.011719 2006.320313 1126.480469 1999.238281 1128.710938 C 1992.378906 1130.878906 1947.339844 1143.519531 1947.339844 1143.519531 L 1824.230469 1114.671875 C 1824.230469 1114.671875 1793.160156 1044.058594 1790.121094 983.390625 C 1764.441406 986.871094 1746.949219 993.210938 1724.628906 1005.601563 C 1735.390625 1063.621094 1761.558594 1157.660156 1790.488281 1175.308594 C 1802.648438 1182.730469 1947.949219 1166.421875 1947.949219 1166.421875 C 1947.949219 1166.421875 1979.96875 1164.160156 1985.199219 1162.148438 C 1989.171875 1160.621094 1999.390625 1154.871094 2004.941406 1153.289063 C 2017.578125 1149.71875 2040.078125 1158.699219 2040.148438 1156.21875 C 2040.199219 1154.421875 2034.488281 1148.300781 2025.5 1145.050781 "/>
    <path style=" stroke:none;fill-rule:nonzero;fill:rgb(58.789063%,85.15625%,78.90625%);fill-opacity:1;" d="M 1790.878906 918.570313 C 1789.691406 899.910156 1782.621094 881.878906 1762.761719 876.078125 C 1750.449219 872.480469 1736.640625 875.921875 1726.800781 883.960938 C 1715.101563 893.519531 1711.828125 908.851563 1711.890625 923.359375 C 1712.011719 956.320313 1714.261719 990.480469 1720.28125 1022.929688 C 1742.601563 1010.539063 1768.660156 1003.089844 1794.351563 999.609375 C 1794.339844 999.421875 1792.441406 943.238281 1790.878906 918.570313 "/>
    <path style=" stroke:none;fill-rule:nonzero;fill:rgb(96.875%,80.076599%,49.804688%);fill-opacity:1;" d="M 1409.449219 953.800781 L 1218.589844 918.261719 C 1214.761719 917.539063 1212.230469 913.859375 1212.941406 910.019531 L 1236.851563 781.628906 C 1237.570313 777.800781 1241.25 775.269531 1245.089844 775.980469 L 1435.941406 811.519531 C 1439.78125 812.230469 1442.308594 815.921875 1441.589844 819.75 L 1417.679688 948.148438 C 1416.96875 951.980469 1413.28125 954.511719 1409.449219 953.800781 "/>
    <path style=" stroke:none;fill-rule:nonzero;fill:rgb(96.875%,80.076599%,49.804688%);fill-opacity:1;" d="M 1318.601563 807.019531 L 1260.5 796.199219 C 1256.671875 795.480469 1254.140625 791.800781 1254.851563 787.960938 L 1258.488281 768.429688 C 1259.210938 764.589844 1262.890625 762.058594 1266.730469 762.78125 L 1324.820313 773.601563 C 1328.660156 774.308594 1331.179688 778 1330.46875 781.828125 L 1326.828125 801.371094 C 1326.121094 805.199219 1322.429688 807.730469 1318.601563 807.019531 "/>
    <path style=" stroke:none;fill-rule:nonzero;fill:rgb(98.046875%,87.889099%,69.726563%);fill-opacity:1;" d="M 1418.140625 948.890625 C 1417.148438 952.398438 1413.640625 954.578125 1410.050781 953.910156 L 1217.949219 918.140625 C 1214.378906 917.46875 1211.890625 914.199219 1212.210938 910.578125 L 1222.261719 795.488281 C 1222.441406 793.511719 1223.441406 791.691406 1225.019531 790.480469 C 1226.609375 789.28125 1228.628906 788.800781 1230.589844 789.160156 L 1444 828.898438 C 1445.949219 829.269531 1447.660156 830.429688 1448.699219 832.121094 C 1449.75 833.808594 1450.039063 835.851563 1449.5 837.761719 L 1418.140625 948.890625 "/>
    <path style=" stroke:none;fill-rule:nonzero;fill:rgb(31.37207%,74.804688%,64.646912%);fill-opacity:1;" d="M 2293.539063 528.351563 L 2260.859375 537.28125 L 2253.820313 497.671875 L 2264.511719 495.769531 L 2269.46875 523.660156 L 2290.679688 517.871094 L 2293.539063 528.351563 "/>
    <path style=" stroke:none;fill-rule:nonzero;fill:rgb(20.776367%,32.542419%,53.709412%);fill-opacity:1;" d="M 1252.308594 1072.28125 C 1260.5 1071.609375 1273.058594 1075.21875 1278.699219 1079.039063 C 1279.539063 1079.828125 1286.019531 1082.410156 1292.761719 1093.570313 L 1291.238281 1094.621094 C 1284.140625 1087.179688 1279.359375 1085.511719 1273.660156 1083.800781 C 1264.28125 1081.390625 1254.820313 1083.191406 1254.050781 1083.609375 L 1252.308594 1072.28125 "/>
    <path style=" stroke:none;fill-rule:nonzero;fill:rgb(95.701599%,45.483398%,34.521484%);fill-opacity:1;" d="M 1292 1094.089844 C 1292 1094.089844 1242.128906 1102.410156 1246.78125 1141.371094 C 1251.429688 1180.328125 1304.039063 1210.628906 1351 1186.539063 C 1414.160156 1154.128906 1389.210938 1071.71875 1344.25 1065.351563 C 1299.300781 1058.980469 1292 1094.089844 1292 1094.089844 "/>
    <path style=" stroke:none;fill-rule:nonzero;fill:rgb(95.701599%,54.881287%,49.804688%);fill-opacity:1;" d="M 1313.160156 1076.941406 C 1313.160156 1076.941406 1326.171875 1063.578125 1354.671875 1075.730469 C 1383.179688 1087.878906 1385.238281 1144.550781 1359.820313 1141.261719 C 1334.390625 1137.96875 1292.828125 1085.109375 1313.160156 1076.941406 "/>
    <path style=" stroke:none;fill-rule:nonzero;fill:rgb(52.539063%,69.334412%,94.921875%);fill-opacity:1;" d="M 1656.210938 559.390625 L 1451.109375 632.550781 C 1444.5 634.910156 1437.230469 631.460938 1434.871094 624.851563 L 1397.019531 518.730469 C 1394.660156 512.121094 1398.109375 504.839844 1404.71875 502.488281 L 1609.820313 429.320313 C 1616.429688 426.96875 1623.699219 430.410156 1626.058594 437.019531 L 1663.910156 543.148438 C 1666.269531 549.761719 1662.828125 557.03125 1656.210938 559.390625 "/>
    <path style=" stroke:none;fill-rule:nonzero;fill:rgb(100%,100%,100%);fill-opacity:1;" d="M 1520.269531 532.109375 C 1527.808594 553.25 1516.789063 576.511719 1495.640625 584.050781 C 1474.5 591.589844 1451.25 580.570313 1443.699219 559.421875 C 1436.160156 538.28125 1447.191406 515.03125 1468.328125 507.480469 C 1489.46875 499.941406 1512.730469 510.96875 1520.269531 532.109375 "/>
    <path style=" stroke:none;fill-rule:nonzero;fill:rgb(52.539063%,69.334412%,94.921875%);fill-opacity:1;" d="M 1487.808594 526.421875 C 1490.039063 532.660156 1486.78125 539.511719 1480.550781 541.738281 C 1474.308594 543.960938 1467.460938 540.710938 1465.230469 534.480469 C 1463.011719 528.238281 1466.261719 521.378906 1472.5 519.160156 C 1478.730469 516.941406 1485.589844 520.191406 1487.808594 526.421875 "/>
    <path style=" stroke:none;fill-rule:nonzero;fill:rgb(52.539063%,69.334412%,94.921875%);fill-opacity:1;" d="M 1507.339844 559.839844 L 1471.269531 572.710938 L 1469.820313 568.660156 C 1467.191406 561.28125 1471.039063 553.148438 1478.429688 550.519531 L 1487.75 547.191406 C 1495.140625 544.558594 1503.261719 548.410156 1505.898438 555.800781 L 1507.339844 559.839844 "/>
    <path style=" stroke:none;fill-rule:nonzero;fill:rgb(100%,100%,100%);fill-opacity:1;" d="M 1525.320313 509.921875 C 1523.140625 509.921875 1521.179688 508.539063 1520.441406 506.480469 C 1519.480469 503.789063 1520.890625 500.820313 1523.578125 499.859375 L 1613.238281 467.878906 C 1613.800781 467.679688 1614.390625 467.570313 1614.980469 467.570313 C 1617.171875 467.570313 1619.128906 468.960938 1619.859375 471.019531 C 1620.820313 473.710938 1619.421875 476.679688 1616.71875 477.640625 L 1527.070313 509.621094 C 1526.5 509.820313 1525.921875 509.921875 1525.320313 509.921875 "/>
    <path style=" stroke:none;fill-rule:nonzero;fill:rgb(100%,100%,100%);fill-opacity:1;" d="M 1549.53125 532.28125 C 1547.339844 532.28125 1545.378906 530.890625 1544.640625 528.828125 C 1543.679688 526.140625 1545.089844 523.171875 1547.789063 522.210938 L 1617.808594 497.230469 C 1618.371094 497.03125 1618.960938 496.929688 1619.550781 496.929688 C 1621.738281 496.929688 1623.699219 498.308594 1624.429688 500.371094 C 1624.898438 501.671875 1624.828125 503.078125 1624.238281 504.328125 C 1623.640625 505.578125 1622.601563 506.53125 1621.289063 506.988281 L 1551.269531 531.96875 C 1550.710938 532.171875 1550.121094 532.28125 1549.53125 532.28125 "/>
    <path style=" stroke:none;fill-rule:nonzero;fill:rgb(95.701599%,45.483398%,34.521484%);fill-opacity:1;" d="M 1974.890625 1359.871094 L 1479.648438 1359.871094 C 1464.269531 1359.871094 1451.808594 1372.339844 1451.808594 1387.71875 L 1451.808594 1411.140625 C 1451.808594 1426.519531 1464.269531 1438.988281 1479.648438 1438.988281 L 1974.890625 1438.988281 L 1974.628906 1438.71875 C 1953.449219 1416.671875 1953.558594 1381.789063 1974.890625 1359.871094 "/>
    <path style=" stroke:none;fill-rule:nonzero;fill:rgb(98.046875%,87.889099%,69.726563%);fill-opacity:1;" d="M 1966.128906 1371.578125 L 1701.378906 1371.578125 C 1686 1371.578125 1673.53125 1384.050781 1673.53125 1399.429688 C 1673.53125 1414.808594 1686 1427.28125 1701.378906 1427.28125 L 1966.121094 1427.28125 C 1956.390625 1410.03125 1956.398438 1388.808594 1966.128906 1371.578125 "/>
    <path style=" stroke:none;fill-rule:nonzero;fill:rgb(98.046875%,87.889099%,69.726563%);fill-opacity:1;" d="M 2380.21875 1362.148438 L 2342.679688 1267.96875 C 2340.789063 1263.230469 2343.101563 1257.859375 2347.839844 1255.96875 L 2482.921875 1202.128906 C 2487.660156 1200.238281 2493.03125 1202.550781 2494.921875 1207.289063 L 2532.460938 1301.46875 C 2534.351563 1306.210938 2532.039063 1311.578125 2527.300781 1313.46875 L 2392.21875 1367.308594 C 2387.480469 1369.199219 2382.109375 1366.890625 2380.21875 1362.148438 "/>
    <path style=" stroke:none;fill-rule:nonzero;fill:rgb(27.43988%,43.138123%,71.289063%);fill-opacity:1;" d="M 2507.648438 1307.691406 L 2473.910156 1223.058594 C 2473.371094 1221.699219 2474.03125 1220.160156 2475.390625 1219.621094 C 2476.75 1219.078125 2478.289063 1219.738281 2478.839844 1221.101563 L 2512.570313 1305.730469 C 2513.109375 1307.089844 2512.449219 1308.628906 2511.089844 1309.171875 C 2509.730469 1309.710938 2508.191406 1309.050781 2507.648438 1307.691406 "/>
    <path style=" stroke:none;fill-rule:nonzero;fill:rgb(27.43988%,43.138123%,71.289063%);fill-opacity:1;" d="M 2491.570313 1296.539063 L 2463.878906 1227.058594 C 2463.339844 1225.699219 2464 1224.160156 2465.359375 1223.621094 C 2466.71875 1223.070313 2468.261719 1223.738281 2468.800781 1225.101563 L 2496.5 1294.578125 C 2497.039063 1295.941406 2496.378906 1297.480469 2495.019531 1298.03125 C 2493.660156 1298.570313 2492.121094 1297.910156 2491.570313 1296.539063 "/>
    <path style=" stroke:none;fill-rule:nonzero;fill:rgb(27.43988%,43.138123%,71.289063%);fill-opacity:1;" d="M 2487.578125 1315.691406 L 2453.839844 1231.058594 C 2453.300781 1229.699219 2453.960938 1228.160156 2455.320313 1227.621094 C 2456.679688 1227.070313 2458.230469 1227.738281 2458.769531 1229.101563 L 2492.5 1313.730469 C 2493.039063 1315.089844 2492.378906 1316.628906 2491.019531 1317.171875 C 2489.660156 1317.710938 2488.121094 1317.050781 2487.578125 1315.691406 "/>
    <path style=" stroke:none;fill-rule:nonzero;fill:rgb(27.43988%,43.138123%,71.289063%);fill-opacity:1;" d="M 2469.851563 1300.378906 L 2443.808594 1235.058594 C 2443.269531 1233.699219 2443.929688 1232.160156 2445.289063 1231.621094 C 2446.648438 1231.070313 2448.191406 1231.738281 2448.730469 1233.101563 L 2474.769531 1298.421875 C 2475.308594 1299.78125 2474.648438 1301.320313 2473.289063 1301.859375 C 2471.929688 1302.398438 2470.390625 1301.738281 2469.851563 1300.378906 "/>
    <path style=" stroke:none;fill-rule:nonzero;fill:rgb(20.776367%,32.542419%,53.709412%);fill-opacity:1;" d="M 2506.738281 1214.03125 L 2506.058594 1212.328125 C 2505.808594 1211.699219 2505.128906 1211.378906 2504.539063 1211.621094 L 2491.71875 1216.730469 C 2491.128906 1216.960938 2490.851563 1217.671875 2491.101563 1218.289063 L 2491.78125 1220 C 2492.03125 1220.621094 2492.710938 1220.941406 2493.300781 1220.710938 L 2506.121094 1215.601563 C 2506.710938 1215.359375 2506.988281 1214.660156 2506.738281 1214.03125 "/>
    <path style=" stroke:none;fill-rule:nonzero;fill:rgb(20.776367%,32.542419%,53.709412%);fill-opacity:1;" d="M 2509.648438 1221.320313 L 2508.96875 1219.621094 C 2508.71875 1218.988281 2508.039063 1218.671875 2507.441406 1218.910156 L 2494.621094 1224.019531 C 2494.03125 1224.25 2493.761719 1224.949219 2494.011719 1225.578125 L 2494.691406 1227.289063 C 2494.941406 1227.910156 2495.621094 1228.230469 2496.210938 1228 L 2509.03125 1222.890625 C 2509.621094 1222.648438 2509.898438 1221.949219 2509.648438 1221.320313 "/>
    <path style=" stroke:none;fill-rule:nonzero;fill:rgb(20.776367%,32.542419%,53.709412%);fill-opacity:1;" d="M 2512.550781 1228.609375 L 2511.871094 1226.910156 C 2511.621094 1226.28125 2510.941406 1225.960938 2510.351563 1226.199219 L 2497.53125 1231.308594 C 2496.941406 1231.539063 2496.660156 1232.238281 2496.910156 1232.871094 L 2497.589844 1234.578125 C 2497.839844 1235.199219 2498.519531 1235.519531 2499.109375 1235.289063 L 2511.941406 1230.171875 C 2512.519531 1229.941406 2512.800781 1229.238281 2512.550781 1228.609375 "/>
    <path style=" stroke:none;fill-rule:nonzero;fill:rgb(20.776367%,32.542419%,53.709412%);fill-opacity:1;" d="M 2515.460938 1235.898438 L 2514.78125 1234.199219 C 2514.53125 1233.570313 2513.851563 1233.25 2513.261719 1233.488281 L 2500.441406 1238.601563 C 2499.851563 1238.828125 2499.570313 1239.53125 2499.820313 1240.160156 L 2500.5 1241.871094 C 2500.75 1242.488281 2501.429688 1242.808594 2502.019531 1242.570313 L 2514.839844 1237.460938 C 2515.429688 1237.230469 2515.710938 1236.53125 2515.460938 1235.898438 "/>
    <path style=" stroke:none;fill-rule:nonzero;fill:rgb(20.776367%,32.542419%,53.709412%);fill-opacity:1;" d="M 2518.359375 1243.191406 L 2517.679688 1241.488281 C 2517.429688 1240.859375 2516.75 1240.539063 2516.160156 1240.78125 L 2503.339844 1245.890625 C 2502.75 1246.121094 2502.480469 1246.820313 2502.71875 1247.449219 L 2503.398438 1249.148438 C 2503.648438 1249.78125 2504.339844 1250.101563 2504.929688 1249.859375 L 2517.75 1244.75 C 2518.339844 1244.519531 2518.609375 1243.820313 2518.359375 1243.191406 "/>
    <path style=" stroke:none;fill-rule:nonzero;fill:rgb(20.776367%,32.542419%,53.709412%);fill-opacity:1;" d="M 2521.269531 1250.480469 L 2520.589844 1248.78125 C 2520.339844 1248.148438 2519.660156 1247.828125 2519.070313 1248.070313 L 2506.25 1253.179688 C 2505.660156 1253.410156 2505.378906 1254.109375 2505.628906 1254.738281 L 2506.308594 1256.441406 C 2506.558594 1257.070313 2507.238281 1257.390625 2507.828125 1257.148438 L 2520.648438 1252.039063 C 2521.238281 1251.808594 2521.519531 1251.109375 2521.269531 1250.480469 "/>
    <path style=" stroke:none;fill-rule:nonzero;fill:rgb(20.776367%,32.542419%,53.709412%);fill-opacity:1;" d="M 2524.171875 1257.769531 L 2523.488281 1256.070313 C 2523.238281 1255.441406 2522.558594 1255.121094 2521.96875 1255.359375 L 2509.148438 1260.46875 C 2508.558594 1260.699219 2508.289063 1261.398438 2508.539063 1262.03125 L 2509.21875 1263.730469 C 2509.46875 1264.359375 2510.148438 1264.679688 2510.738281 1264.441406 L 2523.558594 1259.328125 C 2524.148438 1259.101563 2524.421875 1258.398438 2524.171875 1257.769531 "/>
    <path style=" stroke:none;fill-rule:nonzero;fill:rgb(20.776367%,32.542419%,53.709412%);fill-opacity:1;" d="M 2527.078125 1265.058594 L 2526.398438 1263.359375 C 2526.148438 1262.730469 2525.46875 1262.410156 2524.878906 1262.648438 L 2512.058594 1267.761719 C 2511.46875 1267.988281 2511.191406 1268.691406 2511.441406 1269.320313 L 2512.121094 1271.019531 C 2512.371094 1271.648438 2513.050781 1271.96875 2513.640625 1271.730469 L 2526.460938 1266.621094 C 2527.050781 1266.390625 2527.328125 1265.691406 2527.078125 1265.058594 "/>
    <path style=" stroke:none;fill-rule:nonzero;fill:rgb(20.776367%,32.542419%,53.709412%);fill-opacity:1;" d="M 2529.980469 1272.351563 L 2529.300781 1270.648438 C 2529.050781 1270.019531 2528.371094 1269.699219 2527.78125 1269.941406 L 2514.960938 1275.050781 C 2514.371094 1275.28125 2514.101563 1275.980469 2514.351563 1276.609375 L 2515.03125 1278.308594 C 2515.28125 1278.941406 2515.960938 1279.261719 2516.550781 1279.019531 L 2529.371094 1273.910156 C 2529.960938 1273.679688 2530.230469 1272.980469 2529.980469 1272.351563 "/>
    <path style=" stroke:none;fill-rule:nonzero;fill:rgb(20.776367%,32.542419%,53.709412%);fill-opacity:1;" d="M 2532.890625 1279.640625 L 2532.210938 1277.941406 C 2531.960938 1277.308594 2531.28125 1276.988281 2530.691406 1277.230469 L 2517.871094 1282.339844 C 2517.28125 1282.570313 2517 1283.269531 2517.25 1283.898438 L 2517.929688 1285.601563 C 2518.179688 1286.230469 2518.859375 1286.550781 2519.449219 1286.308594 L 2532.269531 1281.199219 C 2532.859375 1280.96875 2533.140625 1280.269531 2532.890625 1279.640625 "/>
    <path style=" stroke:none;fill-rule:nonzero;fill:rgb(20.776367%,32.542419%,53.709412%);fill-opacity:1;" d="M 2535.789063 1286.929688 L 2535.109375 1285.21875 C 2534.871094 1284.601563 2534.191406 1284.28125 2533.589844 1284.519531 L 2520.769531 1289.628906 C 2520.179688 1289.859375 2519.910156 1290.558594 2520.160156 1291.191406 L 2520.839844 1292.890625 C 2521.089844 1293.519531 2521.769531 1293.839844 2522.359375 1293.601563 L 2535.179688 1288.488281 C 2535.769531 1288.261719 2536.039063 1287.558594 2535.789063 1286.929688 "/>
    <path style=" stroke:none;fill-rule:nonzero;fill:rgb(20.776367%,32.542419%,53.709412%);fill-opacity:1;" d="M 2538.699219 1294.21875 L 2538.019531 1292.511719 C 2537.769531 1291.890625 2537.089844 1291.570313 2536.5 1291.800781 L 2523.679688 1296.921875 C 2523.089844 1297.148438 2522.808594 1297.851563 2523.058594 1298.480469 L 2523.738281 1300.179688 C 2523.988281 1300.808594 2524.671875 1301.128906 2525.261719 1300.890625 L 2538.078125 1295.78125 C 2538.671875 1295.539063 2538.949219 1294.851563 2538.699219 1294.21875 "/>
    <path style=" stroke:none;fill-rule:nonzero;fill:rgb(71.679688%,34.104919%,25.87738%);fill-opacity:1;" d="M 2574.121094 1286.71875 L 2520.511719 1363.058594 C 2520.390625 1363.230469 2520.289063 1363.421875 2520.230469 1363.621094 L 2514.761719 1380.390625 C 2514.128906 1382.339844 2516.378906 1383.960938 2518.019531 1382.71875 L 2532.371094 1371.898438 C 2532.550781 1371.769531 2532.699219 1371.609375 2532.828125 1371.429688 L 2586.578125 1294.890625 C 2587.269531 1293.910156 2587 1292.558594 2585.988281 1291.921875 L 2576.96875 1286.148438 C 2576.019531 1285.550781 2574.769531 1285.800781 2574.121094 1286.71875 "/>
    <path style=" stroke:none;fill-rule:nonzero;fill:rgb(96.875%,80.076599%,49.804688%);fill-opacity:1;" d="M 2532.769531 1371.511719 L 2532.640625 1371.699219 L 2518.789063 1382.140625 L 2515.019531 1379.609375 L 2520.199219 1363.710938 C 2524.25 1365.929688 2529.109375 1368.210938 2532.769531 1371.511719 "/>
    <path style=" stroke:none;fill-rule:nonzero;fill:rgb(27.43988%,43.138123%,71.289063%);fill-opacity:1;" d="M 2030.96875 460.25 C 2038.691406 466.410156 2052.121094 486.230469 2069.238281 500.140625 C 2079.261719 508.28125 2086.980469 506.210938 2099.769531 507.761719 C 2160.449219 515.089844 2144.011719 527.488281 2151.289063 528.710938 C 2149.21875 533.46875 2130.308594 573.660156 2126.78125 581.78125 C 2123.519531 589.269531 2117.890625 592.621094 2109.730469 591.5 C 2097.179688 589.761719 2084.519531 588.46875 2072.160156 585.789063 C 2040.488281 578.921875 2022.871094 563.078125 2000.171875 543.851563 C 1994.148438 538.738281 1992.671875 532.378906 1995.789063 525.160156 C 2010.320313 491.589844 2029.398438 463.339844 2030.96875 460.25 "/>
    <path style=" stroke:none;fill-rule:nonzero;fill:rgb(52.539063%,69.334412%,94.921875%);fill-opacity:1;" d="M 2157.859375 577.058594 C 2157.589844 590.28125 2158.601563 592.941406 2152.921875 590.929688 C 2149.5 589.71875 2146.191406 588.148438 2142.960938 586.480469 C 2140.691406 585.308594 2140.601563 583.761719 2142.449219 581.898438 C 2145.140625 579.191406 2147.910156 576.558594 2150.601563 573.929688 C 2148.628906 568.738281 2150.890625 562.710938 2155.738281 559.871094 C 2156.730469 559.289063 2156.011719 560.519531 2164.460938 541.070313 C 2136.511719 537.621094 2116.789063 535.308594 2082.699219 531.121094 C 2073.589844 530 2065.480469 526.449219 2058.429688 520.550781 C 2034.070313 500.179688 2009.71875 479.800781 1985.390625 459.410156 C 1982.089844 456.640625 1981.671875 452.578125 1984.289063 449.460938 C 1986.300781 447.078125 1988.949219 446.960938 1991.808594 447.320313 C 1999.589844 448.300781 2075.878906 457.769531 2083.628906 458.679688 C 2093.808594 459.871094 2102.769531 463.699219 2110.640625 470.289063 C 2134.558594 490.328125 2158.550781 510.289063 2182.5 530.28125 C 2185.789063 533.03125 2186.679688 535.550781 2185.519531 538.601563 C 2184.25 541.949219 2181.480469 543.550781 2177.300781 542.648438 C 2174.269531 541.988281 2172.941406 542.910156 2171.898438 545.710938 C 2167.199219 558.351563 2163.921875 561.148438 2165.050781 565.769531 C 2165.929688 569.339844 2161.691406 575.511719 2157.859375 577.058594 "/>
    <path style=" stroke:none;fill-rule:nonzero;fill:rgb(27.43988%,43.138123%,71.289063%);fill-opacity:1;" d="M 2284.429688 1475.390625 L 2298.328125 1488.648438 C 2331.21875 1520.019531 2358.039063 1557.179688 2377.441406 1598.269531 L 2379.570313 1602.78125 C 2379.570313 1602.78125 2415.980469 1606 2421.058594 1573.078125 C 2389.121094 1537.019531 2362.828125 1498.511719 2341.128906 1455.679688 L 2334.550781 1440.289063 L 2284.429688 1475.390625 "/>
    <path style=" stroke:none;fill-rule:nonzero;fill:rgb(52.539063%,69.334412%,94.921875%);fill-opacity:1;" d="M 2334.511719 1440.25 C 2336.300781 1442.808594 2326.539063 1452.710938 2312.699219 1462.351563 C 2298.871094 1472 2286.140625 1477.859375 2284.359375 1475.300781 C 2282.570313 1472.738281 2292.398438 1462.71875 2306.230469 1453.078125 C 2320.058594 1443.429688 2332.730469 1437.679688 2334.511719 1440.25 "/>
    <path style=" stroke:none;fill-rule:nonzero;fill:rgb(20.776367%,32.542419%,53.709412%);fill-opacity:1;" d="M 2334.570313 1440.339844 L 2334.53125 1440.289063 C 2334.53125 1440.289063 2306.808594 1463.75 2295.390625 1466.140625 L 2298.921875 1470.941406 C 2303.089844 1468.691406 2307.828125 1465.761719 2312.699219 1462.351563 C 2326.378906 1452.820313 2336.070313 1443.039063 2334.570313 1440.339844 "/>
    <path style=" stroke:none;fill-rule:nonzero;fill:rgb(71.679688%,34.104919%,25.87738%);fill-opacity:1;" d="M 2371.601563 1508.449219 C 2371.648438 1512.488281 2370.101563 1529.949219 2341.058594 1537.230469 C 2342.96875 1539.828125 2344.851563 1542.460938 2346.691406 1545.109375 C 2365.070313 1539.671875 2373.339844 1530.238281 2377.058594 1523.050781 C 2377.640625 1521.921875 2378.351563 1520.390625 2378.820313 1519.210938 C 2376.371094 1515.648438 2373.960938 1512.070313 2371.601563 1508.449219 "/>
    <path style=" stroke:none;fill-rule:nonzero;fill:rgb(71.679688%,34.104919%,25.87738%);fill-opacity:1;" d="M 2343.671875 1532.070313 L 2300.929688 1530.539063 L 2311.058594 1539.140625 L 2305.011719 1550.121094 L 2345.460938 1539.808594 L 2343.671875 1532.070313 "/>
    <path style=" stroke:none;fill-rule:nonzero;fill:rgb(71.679688%,34.104919%,25.87738%);fill-opacity:1;" d="M 2347.558594 1542.011719 L 2332.378906 1568.460938 L 2343.058594 1564.398438 L 2347.171875 1572.800781 L 2354.308594 1544.980469 L 2347.558594 1542.011719 "/>
    <path style=" stroke:none;fill-rule:nonzero;fill:rgb(95.701599%,45.483398%,34.521484%);fill-opacity:1;" d="M 2353.359375 1549.179688 C 2345.859375 1549.710938 2339.328125 1543.871094 2338.78125 1536.140625 C 2338.230469 1528.410156 2343.871094 1521.710938 2351.378906 1521.179688 C 2358.878906 1520.648438 2365.410156 1526.488281 2365.960938 1534.21875 C 2366.511719 1541.949219 2360.871094 1548.648438 2353.359375 1549.179688 "/>
    <path style=" stroke:none;fill-rule:nonzero;fill:rgb(60.742188%,75.78125%,97.65625%);fill-opacity:1;" d="M 2444.078125 949.011719 L 2354.078125 868.699219 C 2348.230469 863.480469 2350.660156 852.738281 2358.730469 848.171875 L 2430.558594 807.5 C 2435.160156 804.898438 2440.339844 805.140625 2443.671875 808.121094 L 2533.671875 888.429688 C 2539.519531 893.648438 2537.089844 904.378906 2529.019531 908.949219 L 2457.191406 949.621094 C 2452.589844 952.230469 2447.410156 951.988281 2444.078125 949.011719 "/>
    <path style=" stroke:none;fill-rule:nonzero;fill:rgb(100%,100%,100%);fill-opacity:1;" d="M 2439.808594 885.121094 L 2432.308594 823.421875 C 2432.019531 821.058594 2433.738281 818.53125 2436.148438 817.78125 C 2438.558594 817.03125 2440.75 818.339844 2441.039063 820.699219 L 2447.941406 877.480469 L 2516.191406 893.980469 C 2518.410156 894.519531 2519.441406 896.921875 2518.480469 899.339844 C 2517.519531 901.761719 2514.929688 903.289063 2512.699219 902.75 L 2439.808594 885.121094 "/>
    <path style=" stroke:none;fill-rule:nonzero;fill:rgb(9.423828%,27.43988%,33.325195%);fill-opacity:1;" d="M 920.417969 1720.851563 C 915.601563 1720.851563 911.695313 1725.371094 911.695313 1730.949219 C 911.695313 1736.519531 915.601563 1741.039063 921.460938 1734.261719 L 2694.078125 1734.261719 C 2696.351563 1734.261719 2698.191406 1731.289063 2698.199219 1727.601563 C 2698.21875 1723.878906 2696.371094 1720.851563 2694.078125 1720.851563 L 920.417969 1720.851563 "/>
    <path style=" stroke:none;fill-rule:nonzero;fill:rgb(96.875%,80.076599%,49.804688%);fill-opacity:1;" d="M 1264.550781 602.488281 L 1273.851563 620.898438 L 1294.871094 620.21875 L 1303.839844 641.578125 L 1326 633.960938 L 1337.210938 657.671875 L 1358.480469 653.160156 L 1372.988281 674.21875 L 1365.019531 679.710938 L 1354.171875 663.96875 L 1331.71875 668.730469 L 1320.949219 645.929688 L 1298.421875 653.691406 L 1288.519531 630.109375 L 1268 630.769531 L 1259.371094 613.710938 L 1245.988281 616.96875 L 1243.699219 607.558594 L 1264.550781 602.488281 "/>
    <path style=" stroke:none;fill-rule:nonzero;fill:rgb(31.37207%,74.804688%,64.646912%);fill-opacity:1;" d="M 2390.101563 1073.269531 L 2409.199219 1081.03125 L 2424.601563 1066.710938 L 2445.398438 1076.929688 L 2457.101563 1056.621094 L 2481.128906 1067.140625 L 2494.210938 1049.769531 L 2518.980469 1056.109375 L 2516.578125 1065.480469 L 2498.058594 1060.75 L 2484.261719 1079.078125 L 2461.160156 1068.96875 L 2449.261719 1089.621094 L 2426.308594 1078.339844 L 2411.269531 1092.320313 L 2393.570313 1085.128906 L 2385.609375 1096.378906 L 2377.710938 1090.789063 L 2390.101563 1073.269531 "/>
  </g>
</svg>