<svg xmlns="http://www.w3.org/2000/svg" height="2666.667" width="2666.667" xml:space="preserve"><path style="fill:#fff;fill-opacity:1;fill-rule:nonzero;stroke:none" d="M0 0h20000v20000H0z" transform="matrix(.13333 0 0 -.13333 0 2666.667)"/><path style="fill:#f3f3ff;fill-opacity:1;fill-rule:nonzero;stroke:none" d="M15758.5 3191.7H14899l498.6 2881.9h-173.8l-86.3-498.5h.3l-412.4-2383.4H5611.08L5198.75 5575l-86.25 498.5H4939l86.25-498.5 412.33-2383.3h-646.86c-255.42 215.6-490.69 453.1-705.21 708.6L4375.25 5575l86.25 498.5H4288l-86.25-498.5-259.16-1498c-829.23 1065.1-1315.5 2407.4-1410.86 3755.3-69.93 988.6 55.94 2008.1 500.3 2898.8 444.35 890.7 1231.17 1640.5 2198.76 1922.3 218.42 63.6 438.48 102.7 659.97 122.8v-2568.4l-190.89-199.9 48.14-325.1 142.75-60.5V9189c-51.98 30.3-107.4 55-165.51 73.5a615.27 615.27 0 0 1-186.4 28.9c-131.98 0-262.2-42.5-369.6-124.7C4485 8643.5 4175 7543.8 4175 7543.8L4040.2 6902c-78.71-374.7 207.25-727 590.16-727h1261.31c-126.18-616.6-44.17-1464.8 0-2337.5l3.82-.1-85.07-644.2h95.11l123.65 241.6 456.56-232.3h361.44s49.62 65.4-119.9 198.1c-143.88 112.6-253.13 259.9-314.21 426.4l668.57 2351c53.95 189.7-36.47 390.7-214.22 476.2l-478.33 230.1c-39.1 23.1-80.58 43.1-124.26 59.7l-971.08 368.5c3.25 14.2 7.25 29.5 12 45.5 83.5 275.5 292.75 495.5 560 600.5 8.25 3 16.5 6.2 25 9.3 8.75 3.2 17.25 6.4 25.75 10 143.25 59.2 244.25 182.5 283 326.2 17.25 64.5 22.25 133 12.75 201.8l-19.41 141.6h7726.46c135.8 0 246.2 110.4 246.2 246.2v4287.8c1200.8-37.2 2249.1-891.6 2854.8-1912.6 857.9-1446 978.9-2964.9 644.1-4608.4-163.3-801.5-640.1-1766.6-1259.7-2645.1l-356.1 2058.3H15874.8l86.2-498.5h.3l303.4-1753.6c-161.4-217.9-331-429.3-506.2-629.8m-4115.4 4250.9v-4250h350v4261.6h-350v-11.6m-3562.54 0v-4250h350v4261.6h-350v-11.6M14940 10311.4l-363.2-79.1 37.1-575.5c3.2-48.9 33.3-91.9 78.1-111.6 16.8-7.4 34.8-11.1 52.8-11.1 15.5 0 31.1 2.7 45.9 8.3l361.1 134.9 62 320.9-273.8 313.2" transform="matrix(.13333 0 0 -.13333 0 2666.667)"/><path style="fill:#e0e0ff;fill-opacity:1;fill-rule:nonzero;stroke:none" d="M8610.34 4725h-892.48c-37.48 0-67.86 30.4-67.86 67.9v240c0 37.5 30.38 67.9 67.86 67.9h892.48c37.47 0 67.85-30.4 67.85-67.9v-240c0-37.5-30.38-67.9-67.85-67.9M9777 4725h-892.48c-37.47 0-67.85 30.4-67.85 67.9v240c0 37.5 30.38 67.9 67.85 67.9H9777c37.48 0 67.86-30.4 67.86-67.9v-240c0-37.5-30.38-67.9-67.86-67.9M9185.34 5241.7h-892.48c-37.48 0-67.86 30.4-67.86 67.8v240.1c0 37.4 30.38 67.8 67.86 67.8h892.48c37.47 0 67.85-30.4 67.85-67.8v-240.1c0-37.4-30.38-67.8-67.85-67.8" transform="matrix(.13333 0 0 -.13333 0 2666.667)"/><path style="fill:#fff;fill-opacity:1;fill-rule:nonzero;stroke:none" d="M14153.1 14050c0 129.2-104.6 233.8-233.8 233.8H6136.95c-129.13 0-233.81-104.6-233.81-233.8v-191.7h8249.96v191.7" transform="matrix(.13333 0 0 -.13333 0 2666.667)"/><path style="fill:#5254cf;fill-opacity:1;fill-rule:nonzero;stroke:none" d="M5915.5 13870.7h8225.3v179.3c0 122.1-99.4 221.5-221.5 221.5H6136.95c-122.11 0-221.45-99.4-221.45-221.5v-179.3m8250-24.7H5890.76v204c0 135.8 110.44 246.2 246.19 246.2h7782.35c135.8 0 246.2-110.4 246.2-246.2v-204" transform="matrix(.13333 0 0 -.13333 0 2666.667)"/><path style="fill:#fff;fill-opacity:1;fill-rule:nonzero;stroke:none" d="M5903.14 13858.3V8893.6c0-129.1 104.68-233.8 233.81-233.8h7782.35c129.2 0 233.8 104.7 233.8 233.8v4964.7H5903.14" transform="matrix(.13333 0 0 -.13333 0 2666.667)"/><path style="fill:#5254cf;fill-opacity:1;fill-rule:nonzero;stroke:none" d="M5915.5 13846V8893.6c0-122.1 99.34-221.5 221.45-221.5h7782.35c122.1 0 221.5 99.4 221.5 221.5V13846H5915.5m8003.8-5198.6H6136.95c-135.75 0-246.19 110.4-246.19 246.2v4977.1h8274.74V8893.6c0-135.8-110.4-246.2-246.2-246.2" transform="matrix(.13333 0 0 -.13333 0 2666.667)"/><path style="fill:#fff;fill-opacity:1;fill-rule:nonzero;stroke:none" d="M6386.47 14071.1c0-46-37.31-83.3-83.34-83.3-46.02 0-83.33 37.3-83.33 83.3s37.31 83.3 83.33 83.3c46.03 0 83.34-37.3 83.34-83.3" transform="matrix(.13333 0 0 -.13333 0 2666.667)"/><path style="fill:#5254cf;fill-opacity:1;fill-rule:nonzero;stroke:none" d="M6303.13 14141.9c-39.05 0-70.83-31.8-70.83-70.8 0-39.1 31.78-70.8 70.83-70.8 39.06 0 70.84 31.7 70.84 70.8 0 39-31.78 70.8-70.84 70.8zm0-166.6c-52.84 0-95.83 42.9-95.83 95.8 0 52.8 42.99 95.8 95.83 95.8 52.85 0 95.84-43 95.84-95.8 0-52.9-42.99-95.8-95.84-95.8" transform="matrix(.13333 0 0 -.13333 0 2666.667)"/><path style="fill:#fff;fill-opacity:1;fill-rule:nonzero;stroke:none" d="M6711.47 14071.1c0-46-37.31-83.3-83.34-83.3-46.02 0-83.33 37.3-83.33 83.3s37.31 83.3 83.33 83.3c46.03 0 83.34-37.3 83.34-83.3" transform="matrix(.13333 0 0 -.13333 0 2666.667)"/><path style="fill:#5254cf;fill-opacity:1;fill-rule:nonzero;stroke:none" d="M6628.13 14141.9c-39.05 0-70.83-31.8-70.83-70.8 0-39.1 31.78-70.8 70.83-70.8 39.06 0 70.84 31.7 70.84 70.8 0 39-31.78 70.8-70.84 70.8zm0-166.6c-52.84 0-95.83 42.9-95.83 95.8 0 52.8 42.99 95.8 95.83 95.8 52.85 0 95.84-43 95.84-95.8 0-52.9-42.99-95.8-95.84-95.8" transform="matrix(.13333 0 0 -.13333 0 2666.667)"/><path style="fill:#fff;fill-opacity:1;fill-rule:nonzero;stroke:none" d="M7036.47 14071.1c0-46-37.31-83.3-83.34-83.3-46.02 0-83.33 37.3-83.33 83.3s37.31 83.3 83.33 83.3c46.03 0 83.34-37.3 83.34-83.3" transform="matrix(.13333 0 0 -.13333 0 2666.667)"/><path style="fill:#5254cf;fill-opacity:1;fill-rule:nonzero;stroke:none" d="M6953.13 14141.9c-39.05 0-70.83-31.8-70.83-70.8 0-39.1 31.78-70.8 70.83-70.8 39.06 0 70.84 31.7 70.84 70.8 0 39-31.78 70.8-70.84 70.8zm0-166.6c-52.84 0-95.83 42.9-95.83 95.8 0 52.8 42.99 95.8 95.83 95.8 52.85 0 95.84-43 95.84-95.8 0-52.9-42.99-95.8-95.84-95.8" transform="matrix(.13333 0 0 -.13333 0 2666.667)"/><path style="fill:#f3f3ff;fill-opacity:1;fill-rule:nonzero;stroke:none" d="M13293.3 9396.8h-2048.7c8.1 641.2-40.8 1172.9-170.2 1507.7h.1l-5.1 112.1c36.5-21.7 77.9-36.6 125-43.1 20.9-2.9 41.1-4.3 60.6-4.3 73.4 0 137.3 20.1 193.4 57.8 306.2 206.3 375.5 942.5 480.2 1822.5 14 117.8 52.3 231.5 112 333.8 24.1 41.3 50.4 87.5 75.3 133.7h1177.4V9396.8m-4269.15 0H6762.99V13317h2530.2c1.92-12 4.18-23.9 6.82-35.7l429.48 17.9-555.9-721.3 56.86-544.2v-.2c-.02.1-.04.2-.07.3l-104.5 134h-325.99l-137.75-750.5c-16.25-88-83.25-158.3-170.5-178.3-16.75-4-33.75-5.7-50.75-5.7-42.5 0-84.5 12-121 35.2-71 45.5-169.25 105.3-199.26 107.3-1.37 0-2.7.1-4.01.1-44.9 0-47.73-48.9-47.73-48.9s-36.27 37.4-69.09 37.4c-17.58 0-34.16-10.7-43.66-43.6 0 0-34.46 27.7-70.39 27.7-22.31 0-45.18-10.7-60.74-45.4 0 0-19.26 6.6-38.92 6.6-27.62 0-56.03-13-32.95-75.3 39.49-106.5 373.5-455.9 833.5-455.9 91.75 0 169.75 6.5 236.75 18 37 6.3 72.5 16.3 106 30 96.89 38.6 178.65 105.2 236.77 189.1-9.9-85.4-20.96-156.1-33.15-200.3h-.12c-33.25-83.8-59-186.8-78.25-306.3-46.39-288.7-53.49-673.2-30.49-1112.2m1988.05 2895.9-19 423.3-536.4 601h935.8c-56.8-285.3-139.5-982.7-139.5-982.7l-240.9-41.6" transform="matrix(.13333 0 0 -.13333 0 2666.667)"/><path style="fill:#ffb147;fill-opacity:1;fill-rule:nonzero;stroke:none" d="M11215.1 8674H9083.13c-78.75 736.3-98.99 1396.3-28.49 1835 19.25 119.5 45 222.5 78.25 306.3l897.71 182.7 1043.8-93.5c175.5-454 203-1270.3 140.7-2230.5" transform="matrix(.13333 0 0 -.13333 0 2666.667)"/><path style="fill:#1b1b43;fill-opacity:1;fill-rule:nonzero;stroke:none" d="M10084.4 9943.8h25v849.949h-25z" transform="matrix(.13333 0 0 -.13333 0 2666.667)"/><path style="fill:#d19346;fill-opacity:1;fill-rule:nonzero;stroke:none" d="M9532.8 10469.8c-151.68 0-311.54 11.8-478.16 39.2 19.25 119.5 45 222.5 78.25 306.3h.12c-.02-.1-.03-.1-.04-.1 0 0 337.93-117.7 835.25-117.7 37.78 0 76.58.7 116.18 2.2v-177.8c-167.66-31.8-352.61-52.1-551.6-52.1m576.6 56.9v174c288.4 12.9 619.7 67.9 964.9 203.7-6.7-4.7-376-260.9-964.9-377.7" transform="matrix(.13333 0 0 -.13333 0 2666.667)"/><path style="fill:#1b1b43;fill-opacity:1;fill-rule:nonzero;stroke:none" d="M10084.4 10521.9v177.8c8.3.2 16.6.6 25 1v-174c-8.3-1.6-16.6-3.3-25-4.8M9607.41 14236.2s-404.88-516.3-307.4-954.9l1422.39 59.3s12.1 859.1-298.6 932.2l-816.39-36.6" transform="matrix(.13333 0 0 -.13333 0 2666.667)"/><path style="fill:#1b1b43;fill-opacity:1;fill-rule:nonzero;stroke:none" d="M10832.3 13391.7h-25c0 562.7-292.7 821.3-295.6 823.8l16.3 19c3-2.6 304.3-268.7 304.3-842.8" transform="matrix(.13333 0 0 -.13333 0 2666.667)"/><path style="fill:#ffbc96;fill-opacity:1;fill-rule:nonzero;stroke:none" d="M9261.14 11303c-1.76-58.7-13.25-115.2-33-168.2-51.5-139.5-159.5-252.8-298.75-308.3-33.5-13.7-69-23.7-106-30-67-11.5-145-18-236.75-18-460 0-794.01 349.4-833.5 455.9-39.5 106.7 71.87 68.7 71.87 68.7 40.62 90.7 131.13 17.7 131.13 17.7 27.25 94.5 112.75 6.2 112.75 6.2s2.99 51.8 51.74 48.8c30.01-2 128.26-61.8 199.26-107.3 36.5-23.2 78.5-35.2 121-35.2 17 0 34 1.7 50.75 5.7 87.25 20 154.25 90.3 170.5 178.3l137.75 750.5h325.99l104.5-134c41-165.3 38.51-503.8 30.76-730.8" transform="matrix(.13333 0 0 -.13333 0 2666.667)"/><path style="fill:#ff957b;fill-opacity:1;fill-rule:nonzero;stroke:none" d="M8929.39 10826.5c-11.5 27.8-18 58.3-18 90.3 0 128.7 104.5 233.2 233.5 233.2 11.79 0 23.38-.9 34.72-2.6-4.22-46.5-8.7-90.8-13.45-131.8-58.12-83.9-139.88-150.5-236.77-189.1" transform="matrix(.13333 0 0 -.13333 0 2666.667)"/><path style="fill:#5254cf;fill-opacity:1;fill-rule:nonzero;stroke:none" d="m9965.63 13605.6-670.41-136.7c-246.47-50.2-439.63-241.9-491.69-488L8621.2 12119l609.25-85.3 735.18 1571.9M10199.2 13605.6l670.4-136.7c246.5-50.2 439.6-241.9 491.7-488l82.8-612.1-591-103.6-653.9 1340.4" transform="matrix(.13333 0 0 -.13333 0 2666.667)"/><path style="fill:#5254cf;fill-opacity:1;fill-rule:nonzero;stroke:none" d="M9230.45 12033.7s-32.49-983-97.48-1218.5c0 0 909.83-316.9 1941.53 89.3l-81.3 1811.5-794 889.6h-233.57l-792.04-1027.7 56.86-544.2" transform="matrix(.13333 0 0 -.13333 0 2666.667)"/><path style="fill:#ffbc96;fill-opacity:1;fill-rule:nonzero;stroke:none" d="M12223.9 13581.3c3.7-64.3-102-258.8-183.3-398-59.7-102.3-98-216-112-333.8-104.7-880-174-1616.2-480.2-1822.5-71-47.7-154.5-67.2-254-53.5-70.3 9.8-128 38-175.3 80.3-322.5 287-166 1211.5-166 1211.5l400 69s89.5 755.5 146.3 1015.5c57 259.7 146.2 121.7 146.2 121.7 32.5 81.3 121.8 32.5 121.8 32.5 65 105.5 146.2 24.5 146.2 24.5 48.8 97.3 187-73.2 187-73.2 89.3 40.7 215.3 261 223.3 126" transform="matrix(.13333 0 0 -.13333 0 2666.667)"/><path style="fill:#1b1b43;fill-opacity:1;fill-rule:nonzero;stroke:none" d="m9242.94 12033.1-24.97 1.2 39.35 824.6 24.97-1.2-39.35-824.6M10841.7 12250.5l-51 656.9 24.9 1.9 48.9-629.5 386.6 66.8 4.2-24.7-413.6-71.4" transform="matrix(.13333 0 0 -.13333 0 2666.667)"/><path style="fill:#d28572;fill-opacity:1;fill-rule:nonzero;stroke:none" d="m11178 11648.4-24.8 3.2 183.4 1383.4 24.8-3.3-183.4-1383.3" transform="matrix(.13333 0 0 -.13333 0 2666.667)"/><path style="fill:#ff957b;fill-opacity:1;fill-rule:nonzero;stroke:none" d="M11255 10969.2c-19.5 0-39.7 1.4-60.6 4.3-47.1 6.5-88.5 21.4-125 43.1-17.9 10.8-34.7 23.2-50.3 37.2 38.3 76.7 117.5 129.5 209 129.5 101.8 0 188.5-65.3 220.3-156.3-56.1-37.7-120-57.8-193.4-57.8" transform="matrix(.13333 0 0 -.13333 0 2666.667)"/><path style="fill:#d28572;fill-opacity:1;fill-rule:nonzero;stroke:none" d="m11556.4 13320-23.1 149.6 24.7 3.8 23.1-149.6-24.7-3.8M11706.9 13352.4l-48.1 146.5 23.7 7.8 48.1-146.5-23.7-7.8M11857 13383.3l-54.4 152.8 23.6 8.3 54.3-152.7-23.5-8.4" transform="matrix(.13333 0 0 -.13333 0 2666.667)"/><path style="fill:#cbcbff;fill-opacity:1;fill-rule:nonzero;stroke:none" d="M10600.6 12868.8h-260.5c-8.4 0-15.1 6.7-15.1 15v60.5c0 8.3 6.7 15.1 15.1 15.1h260.5c8.3 0 15-6.8 15-15.1v-60.5c0-8.3-6.7-15-15-15" transform="matrix(.13333 0 0 -.13333 0 2666.667)"/><path style="fill:#1b1b43;fill-opacity:1;fill-rule:nonzero;stroke:none" d="M10062 13151.1c-171.61 0-290.47 104.7-292.24 106.3l16.74 18.5c10.26-9.2 254.5-223.4 550.8.7l15-19.9c-104.6-79.2-204.1-105.6-290.3-105.6" transform="matrix(.13333 0 0 -.13333 0 2666.667)"/><path style="fill:#d28572;fill-opacity:1;fill-rule:nonzero;stroke:none" d="M8220.48 11194.6c-53.22 20.7-111.08 65.1-167.31 128.3l18.68 16.7c53.62-60.4 108.15-102.4 157.69-121.7l-9.06-23.3M8077.71 11158.2c-51.13 32.3-96.47 84.9-138.63 160.7l21.86 12.2c40.06-72.1 82.62-121.8 130.12-151.8l-13.35-21.1M7976.92 11111.9c-61.05 45.4-117.25 108.8-171.81 193.9l21.05 13.5c52.9-82.5 107.1-143.8 165.69-187.4l-14.93-20" transform="matrix(.13333 0 0 -.13333 0 2666.667)"/><path style="fill:#ffbc96;fill-opacity:1;fill-rule:nonzero;stroke:none" d="M10061.2 13313.1c-140.17 0-253.83 113.7-253.83 253.9v428.5h507.73V13567c0-140.2-113.7-253.9-253.9-253.9" transform="matrix(.13333 0 0 -.13333 0 2666.667)"/><path style="fill:#d28572;fill-opacity:1;fill-rule:nonzero;stroke:none" d="M9807.3 13952.1c156.96-263.8 325.4-285.4 508.3-2.1l-508.3 2.1" transform="matrix(.13333 0 0 -.13333 0 2666.667)"/><path style="fill:#ffbc96;fill-opacity:1;fill-rule:nonzero;stroke:none" d="M10061.2 13843.2c-194.47 0-352.14 157.6-352.14 352.1v594.1h704.34v-594.1c0-194.5-157.7-352.1-352.2-352.1" transform="matrix(.13333 0 0 -.13333 0 2666.667)"/><path style="fill:#1b1b43;fill-opacity:1;fill-rule:nonzero;stroke:none" d="M10054.5 14186.4c-41.2 38.9-56.64 69.7-47.3 94 8.9 23.4 37.5 30.8 54.4 33.2l-.8 76.7 25 .3 1.1-100.7-12.3-.3c-12.2-.3-39.1-5.2-44.1-18.2-2.3-6.2-3-25 41.2-66.8l-17.2-18.2" transform="matrix(.13333 0 0 -.13333 0 2666.667)"/><path style="fill:#fff;fill-opacity:1;fill-rule:nonzero;stroke:none" d="M10186.4 14109.8c15.4 23.6 22.9 44.1 22.9 44.1-85.3-7.1-266.01-7.1-266.01-7.1s5.22-21.1 20.24-44.5c53.97-2.2 142.47-3.3 222.87 7.5" transform="matrix(.13333 0 0 -.13333 0 2666.667)"/><path style="fill:#1b1b43;fill-opacity:1;fill-rule:nonzero;stroke:none" d="M9963.53 14102.3c18.44-28.9 51.67-61.3 108.67-63.2 55.2-1.7 92.5 37.6 114.2 70.7-80.4-10.8-168.9-9.7-222.87-7.5M10409.4 14415.6c.3-13.5 12.5 281.3-446.89 343.8 0 0-259.38-148.5-229.69-362.5l-140.87 26.6c-54.44 148.4-35.69 545.3 283.06 517.1 0 0 68.73 98.2 181.29 100 571.8 9.4 481.5-624.7 467.8-643l-114.7 18" transform="matrix(.13333 0 0 -.13333 0 2666.667)"/><path style="fill:#ffbc96;fill-opacity:1;fill-rule:nonzero;stroke:none" d="M10590.9 14279.2c-26.9-81.6-103.6-129.6-171.3-107.3-67.7 22.3-100.7 106.5-73.8 188.2 26.9 81.6 103.6 129.7 171.3 107.3 67.7-22.3 100.7-106.5 73.8-188.2" transform="matrix(.13333 0 0 -.13333 0 2666.667)"/><path style="fill:#1b1b43;fill-opacity:1;fill-rule:nonzero;stroke:none" d="m10450.2 14275.2-24.8 3.1c4.3 34.5 29.1 100.7 91.9 104.4l1.5-25c-58-3.4-68.5-81.7-68.6-82.5" transform="matrix(.13333 0 0 -.13333 0 2666.667)"/><path style="fill:#ffbc96;fill-opacity:1;fill-rule:nonzero;stroke:none" d="M9529.23 14279.2c26.92-81.6 103.61-129.6 171.29-107.3 67.68 22.3 100.72 106.5 73.81 188.2-26.92 81.6-103.61 129.7-171.3 107.3-67.67-22.3-100.72-106.5-73.8-188.2" transform="matrix(.13333 0 0 -.13333 0 2666.667)"/><path style="fill:#1b1b43;fill-opacity:1;fill-rule:nonzero;stroke:none" d="M9669.92 14275.2c-.42 3.2-10.82 79.1-68.55 82.5l1.46 25c62.83-3.7 87.59-69.9 91.89-104.4l-24.8-3.1M10242.8 14463.8c0-22.5-17-40.8-37.9-40.8-21 0-37.9 18.3-37.9 40.8 0 22.5 16.9 40.8 37.9 40.8 20.9 0 37.9-18.3 37.9-40.8M10272.8 14553.1l-117 14.1c-11.1 1.4-19 11.5-17.7 22.6l.7 5.5c1.3 11.1 11.4 19 22.5 17.6l117-14c11.2-1.4 19.1-11.5 17.7-22.6l-.6-5.5c-1.4-11.1-11.5-19-22.6-17.7M9877.28 14463.8c0-22.5 16.99-40.8 37.94-40.8 20.96 0 37.94 18.3 37.94 40.8 0 22.5-16.98 40.8-37.94 40.8-20.95 0-37.94-18.3-37.94-40.8M9847.28 14553.1l117.06 14.1c11.1 1.4 19.02 11.5 17.69 22.6l-.67 5.5c-1.34 11.1-11.42 19-22.52 17.6l-117.07-14c-11.1-1.4-19.02-11.5-17.68-22.6l.66-5.5c1.34-11.1 11.42-19 22.53-17.7" transform="matrix(.13333 0 0 -.13333 0 2666.667)"/><path style="fill:#ff957b;fill-opacity:1;fill-rule:nonzero;stroke:none" d="M10275.8 14220.8c-45.2 0-81.8 36.6-81.8 81.8 0 45.2 36.6 81.8 81.8 81.8 27.6 0 52.1-13.7 66.9-34.7-8.7-32.6-8.1-65.2.3-93.7a81.553 81.553 0 0 0-67.2-35.2" transform="matrix(.13333 0 0 -.13333 0 2666.667)"/><path style="fill:#ff957b;fill-opacity:1;fill-rule:nonzero;stroke:none" d="M10343 14256c-8.4 28.5-9 61.1-.3 93.7 9.4-13.4 14.9-29.6 14.9-47.1 0-17.3-5.4-33.4-14.6-46.6M9844.34 14220.8c-27.86 0-52.47 13.9-67.24 35.2 8.41 28.5 9.06 61.1.33 93.7 14.81 21 39.26 34.7 66.91 34.7 45.18 0 81.81-36.6 81.81-81.8 0-45.2-36.63-81.8-81.81-81.8" transform="matrix(.13333 0 0 -.13333 0 2666.667)"/><path style="fill:#ff957b;fill-opacity:1;fill-rule:nonzero;stroke:none" d="M9777.1 14256c-9.18 13.2-14.56 29.3-14.56 46.6 0 17.5 5.51 33.8 14.89 47.1 8.73-32.6 8.08-65.2-.33-93.7" transform="matrix(.13333 0 0 -.13333 0 2666.667)"/><path style="fill:#fff;fill-opacity:1;fill-rule:nonzero;stroke:none" d="M7751.67 11691.7H5310.46c-69.52 0-125.88 56.3-125.88 125.8v1003.9c0 69.5 56.36 125.9 125.88 125.9h2441.21c69.52 0 125.88-56.4 125.88-125.9v-1003.9c0-69.5-56.36-125.8-125.88-125.8" transform="matrix(.13333 0 0 -.13333 0 2666.667)"/><path style="fill:#5254cf;fill-opacity:1;fill-rule:nonzero;stroke:none" d="M5310.46 12935.2c-62.78 0-113.85-51-113.85-113.8v-1003.9c0-62.7 51.07-113.8 113.85-113.8h2441.21c62.78 0 113.85 51.1 113.85 113.8v1003.9c0 62.8-51.07 113.8-113.85 113.8zm2441.21-1255.6H5310.46c-76.04 0-137.91 61.9-137.91 137.9v1003.9c0 76 61.87 137.9 137.91 137.9h2441.21c76.04 0 137.91-61.9 137.91-137.9v-1003.9c0-76-61.87-137.9-137.91-137.9" transform="matrix(.13333 0 0 -.13333 0 2666.667)"/><path style="fill:#e0e0ff;fill-opacity:1;fill-rule:nonzero;stroke:none" d="M7577.94 12613.2H5484.19v25h2093.75v-25M7577.94 12307H5484.19v25h2093.75v-25M7577.94 12000.7H5484.19v25h2093.75v-25" transform="matrix(.13333 0 0 -.13333 0 2666.667)"/><path style="fill:#5254cf;fill-opacity:1;fill-rule:nonzero;stroke:none" d="m5519.18 11998.5-19.59 15.5 149.23 188.2 256.89-87.7 221.16 240.1 224.86-181.2 264.05 295.5 239.43-276.2 213.94 553.6 221.93-348.7 258.03 372 20.55-14.2-279.47-403-215.57 338.8-211.07-546.3-248.06 286.2-260.95-292-225.14 181.3-216.34-234.9-255.61 87.3-138.27-174.3" transform="matrix(.13333 0 0 -.13333 0 2666.667)"/><path style="fill:#fff;fill-opacity:1;fill-rule:nonzero;stroke:none" d="m12268.8 15099-120.5 974.7c-485.7-59.5-861.8-473-861.8-974.7 0-542.5 439.8-982.3 982.3-982.3s982.3 439.8 982.3 982.3c0 28.7-1.5 57.1-3.9 85.2l-978.4-85.2" transform="matrix(.13333 0 0 -.13333 0 2666.667)"/><path style="fill:#5254cf;fill-opacity:1;fill-rule:nonzero;stroke:none" d="M12137.4 16059.7c-478.9-64.9-838.4-475.7-838.4-960.7 0-534.8 435-969.8 969.8-969.8s969.8 435 969.8 969.8c0 22.7-.9 46.2-2.8 71.6l-977.9-85.1zm131.4-1955.5c-548.6 0-994.8 446.2-994.8 994.8 0 501.8 375.2 926.2 872.7 987.1l12.4 1.5 120.6-975.1 978.9 85.2 1.1-12.5c2.6-30.9 3.9-59.1 3.9-86.2 0-548.6-446.3-994.8-994.8-994.8" transform="matrix(.13333 0 0 -.13333 0 2666.667)"/><path style="fill:#9192ff;fill-opacity:1;fill-rule:nonzero;stroke:none" d="m12781.3 15299 978.4 85.2c-15.8 183.3-81.8 352.2-184.4 492.9l-794-578.1" transform="matrix(.13333 0 0 -.13333 0 2666.667)"/><path style="fill:#e0e0ff;fill-opacity:1;fill-rule:nonzero;stroke:none" d="M13062.8 15677.1c-178.6 244.9-467.6 404.2-794 404.2-40.8 0-81-2.8-120.5-7.6l120.5-974.7 794 578.1" transform="matrix(.13333 0 0 -.13333 0 2666.667)"/><path style="fill:#5254cf;fill-opacity:1;fill-rule:nonzero;stroke:none" d="m12162.2 16062.7 116.4-941.1 766.7 558.2c-182.7 243.8-472 389-776.5 389-34.8 0-69.8-2-106.6-6.1zm96.8-986.3-124.7 1008.2 12.4 1.5c42.5 5.2 82.4 7.7 122.1 7.7 316.6 0 617.2-153 804.1-409.4l7.4-10.1-821.3-597.9" transform="matrix(.13333 0 0 -.13333 0 2666.667)"/><path style="fill:#fff;fill-opacity:1;fill-rule:nonzero;stroke:none" d="M14733.9 10016.5h-1794.4c-85.7 0-155.1 69.4-155.1 155.1v1968.7c0 85.6 69.4 155.1 155.1 155.1h1794.4c85.7 0 155.2-69.5 155.2-155.1v-1968.7c0-85.7-69.5-155.1-155.2-155.1" transform="matrix(.13333 0 0 -.13333 0 2666.667)"/><path style="fill:#5254cf;fill-opacity:1;fill-rule:nonzero;stroke:none" d="M12939.5 12283.4c-78.9 0-143.1-64.2-143.1-143.1v-1968.7c0-78.9 64.2-143.1 143.1-143.1h1794.4c79 0 143.2 64.2 143.2 143.1v1968.7c0 78.9-64.2 143.1-143.2 143.1zm1794.4-2278.9h-1794.4c-92.1 0-167.1 74.9-167.1 167.1v1968.7c0 92.1 75 167.1 167.1 167.1h1794.4c92.2 0 167.2-75 167.2-167.1v-1968.7c0-92.2-75-167.1-167.2-167.1" transform="matrix(.13333 0 0 -.13333 0 2666.667)"/><path style="fill:#e0e0ff;fill-opacity:1;fill-rule:nonzero;stroke:none" d="M14649.2 11942.8h-1625v26.3h1625v-26.3M14649.2 11542.8h-1625v26.3h1625v-26.3M14649.2 11142.8h-1625v26.3h1625v-26.3M14649.2 10742.8h-1625v26.3h1625v-26.3M14649.2 10342.8h-1625v26.3h1625v-26.3" transform="matrix(.13333 0 0 -.13333 0 2666.667)"/><path style="fill:#cbcbff;fill-opacity:1;fill-rule:nonzero;stroke:none" d="M13162.6 10342.8h-138.4v1088.7h138.4v-1088.7" transform="matrix(.13333 0 0 -.13333 0 2666.667)"/><path style="fill:#e0e0ff;fill-opacity:1;fill-rule:nonzero;stroke:none" d="M13463.5 10342.8h-138.4v684.2h138.4v-684.2" transform="matrix(.13333 0 0 -.13333 0 2666.667)"/><path style="fill:#cbcbff;fill-opacity:1;fill-rule:nonzero;stroke:none" d="M13764.4 10342.8H13626v935.5h138.4v-935.5" transform="matrix(.13333 0 0 -.13333 0 2666.667)"/><path style="fill:#e0e0ff;fill-opacity:1;fill-rule:nonzero;stroke:none" d="M14065.3 10342.8h-138.4v1104.4h138.4v-1104.4" transform="matrix(.13333 0 0 -.13333 0 2666.667)"/><path style="fill:#cbcbff;fill-opacity:1;fill-rule:nonzero;stroke:none" d="M14366.2 10342.8h-138.4v1308.3h138.4v-1308.3" transform="matrix(.13333 0 0 -.13333 0 2666.667)"/><path style="fill:#e0e0ff;fill-opacity:1;fill-rule:nonzero;stroke:none" d="M14667.1 10342.8h-138.4v1525.4h138.4v-1525.4" transform="matrix(.13333 0 0 -.13333 0 2666.667)"/><path style="fill:#fff;fill-opacity:1;fill-rule:nonzero;stroke:none" d="M8757.47 15937.5H7531.78c-80.45 0-145.67-65.2-145.67-145.7v-496.1c0-80.5 65.22-145.7 145.67-145.7h837.05l321.8-275v275h66.84c80.45 0 145.66 65.2 145.66 145.7v496.1c0 80.5-65.21 145.7-145.66 145.7" transform="matrix(.13333 0 0 -.13333 0 2666.667)"/><path style="fill:#5254cf;fill-opacity:1;fill-rule:nonzero;stroke:none" d="M7531.78 15924.4c-73.08 0-132.54-59.5-132.54-132.6v-496.1c0-73.1 59.46-132.6 132.54-132.6h841.89l303.83-259.6v259.6h79.97c73.08 0 132.53 59.5 132.53 132.6v496.1c0 73.1-59.45 132.6-132.53 132.6zm1171.98-1077.9-339.78 290.4h-832.2c-87.56 0-158.8 71.2-158.8 158.8v496.1c0 87.6 71.24 158.8 158.8 158.8h1225.69c87.56 0 158.79-71.2 158.79-158.8v-496.1c0-87.6-71.23-158.8-158.79-158.8h-53.71v-290.4" transform="matrix(.13333 0 0 -.13333 0 2666.667)"/><path style="fill:#9192ff;fill-opacity:1;fill-rule:nonzero;stroke:none" d="M8553.13 15712.5h-981.25v25h981.25v-25M8684.38 15543.8h-1112.5v25h1112.5v-25M8353.13 15375h-781.25v25h781.25v-25" transform="matrix(.13333 0 0 -.13333 0 2666.667)"/><path style="fill:#b0b0d2;fill-opacity:1;fill-rule:nonzero;stroke:none" d="M8080.56 3192.6h350v4250h-350zM11643.1 3192.6h350v4250h-350z" transform="matrix(.13333 0 0 -.13333 0 2666.667)"/><path style="fill:#b2b2c6;fill-opacity:1;fill-rule:nonzero;stroke:none" d="M8430.56 6705.1v737.5h-350v11.6h350v-749.1" transform="matrix(.13333 0 0 -.13333 0 2666.667)"/><path style="fill:#8383a7;fill-opacity:1;fill-rule:nonzero;stroke:none" d="M8080.56 6705.1h350v737.5h-350z" transform="matrix(.13333 0 0 -.13333 0 2666.667)"/><path style="fill:#b2b2c6;fill-opacity:1;fill-rule:nonzero;stroke:none" d="M11993.1 6705.1v737.5h-350v11.6h350v-749.1" transform="matrix(.13333 0 0 -.13333 0 2666.667)"/><path style="fill:#8383a7;fill-opacity:1;fill-rule:nonzero;stroke:none" d="M11643.1 6705.1h350v737.5h-350z" transform="matrix(.13333 0 0 -.13333 0 2666.667)"/><path style="fill:#b0b0d2;fill-opacity:1;fill-rule:nonzero;stroke:none" d="M13967.1 7235.3H6106.53v352.2h7860.57v-352.2" transform="matrix(.13333 0 0 -.13333 0 2666.667)"/><path style="fill:#1b1b43;fill-opacity:1;fill-rule:nonzero;stroke:none" d="M13042.6 7587.1h-910.2v120.7h910.2v-120.7" transform="matrix(.13333 0 0 -.13333 0 2666.667)"/><path style="fill:#1b1b43;fill-opacity:1;fill-rule:nonzero;stroke:none" d="M12267 7587.1h-134.6l-536.6 1415.5c-15.6 41.2 14.9 85.3 58.9 85.3 26.2 0 49.6-16.2 58.9-40.7l553.4-1460.1M7238.44 7587.1h910.27v120.7h-910.27v-120.7" transform="matrix(.13333 0 0 -.13333 0 2666.667)"/><path style="fill:#1b1b43;fill-opacity:1;fill-rule:nonzero;stroke:none" d="M8014.04 7587.1h134.67l536.52 1415.5c15.62 41.2-14.81 85.3-58.87 85.3-26.17 0-49.61-16.2-58.88-40.7l-553.44-1460.1" transform="matrix(.13333 0 0 -.13333 0 2666.667)"/><path style="fill:#d28572;fill-opacity:1;fill-rule:nonzero;stroke:none" d="m5448.91 9216.9 496.59-79.8 5.47 272.1 5.23 270.8 4.55 231.6-137.72 65-235.95-276.5-138.17-483.2" transform="matrix(.13333 0 0 -.13333 0 2666.667)"/><path style="fill:#925d4f;fill-opacity:1;fill-rule:nonzero;stroke:none" d="M5748.1 9682.9s59.93-125.8 202.87-273.7l5.23 270.8-208.1 2.9M6300.21 10017.8c5.77-3.3 157.23-235.2 89.17-256.2-68.05-21-153.96-12.9-153.96-12.9l64.79 269.1" transform="matrix(.13333 0 0 -.13333 0 2666.667)"/><path style="fill:#d28572;fill-opacity:1;fill-rule:nonzero;stroke:none" d="m6350.06 10215.1-62.65-576.6c-5.31-48.9-37.41-90.7-83.26-108.6-32.03-12.4-67.66-11.9-99.3 1.5l-356.84 151.4-48.14 325.1 288.88 302.6 361.31-95.4" transform="matrix(.13333 0 0 -.13333 0 2666.667)"/><path style="fill:#fed3d1;fill-opacity:1;fill-rule:nonzero;stroke:none" d="m5491.67 9533.3-170.84-379.1 662.5-104.2 45.84 295.8-537.5 187.5" transform="matrix(.13333 0 0 -.13333 0 2666.667)"/><path style="fill:#1b1b43;fill-opacity:1;fill-rule:nonzero;stroke:none" d="M5926.82 10008.7s292.9 49.4 423.24 206.4c0 0 48.32 303.6-398.3 343.8-484.54 43.6-938.89-642-938.89-642l591.92-517 322.03 608.8" transform="matrix(.13333 0 0 -.13333 0 2666.667)"/><path style="fill:#d28572;fill-opacity:1;fill-rule:nonzero;stroke:none" d="M5817.87 9936.2c33.32-64.8 100.64-96.6 150.36-71.1 49.71 25.6 63 98.9 29.67 163.7-33.32 64.8-100.64 96.6-150.36 71-49.72-25.5-63-98.8-29.67-163.6" transform="matrix(.13333 0 0 -.13333 0 2666.667)"/><path style="fill:#1b1b43;fill-opacity:1;fill-rule:nonzero;stroke:none" d="M5928.26 9935.7c-2.04 13.8-12.02 53-33.41 67.6-8.2 5.6-17.37 7.2-28.04 4.8l-5.49 24.4c17.61 4 33.67 1.1 47.74-8.6 34.77-23.9 43.58-82.1 43.93-84.6l-24.73-3.6" transform="matrix(.13333 0 0 -.13333 0 2666.667)"/><path style="fill:#cc7162;fill-opacity:1;fill-rule:nonzero;stroke:none" d="M6139.06 9767.2c-53.5 0-96.87 43.4-96.87 96.9 0 53.5 43.37 96.8 96.87 96.8 53.5 0 96.88-43.3 96.88-96.8s-43.38-96.9-96.88-96.9" transform="matrix(.13333 0 0 -.13333 0 2666.667)"/><path style="fill:#fe5b52;fill-opacity:1;fill-rule:nonzero;stroke:none" d="M6199.5 8304c-38.75-143.7-139.75-267-283-326.2-8.5-3.6-17-6.8-25.75-10-8.5-3.1-16.75-6.3-25-9.3-267.25-105-476.5-325-560-600.5-4.75-16-8.75-31.3-12-45.5 0 0-556.25-81.2-1118.75 231.3 0 0 310 1099.7 994.25 1622.9 158.25 121.1 366 156.1 556 95.8 83.25-26.5 161-65.8 231-116C6026 9096 6088 9034.7 6139.5 8964.2l12.25-17 60.5-441.4c9.5-68.8 4.5-137.3-12.75-201.8" transform="matrix(.13333 0 0 -.13333 0 2666.667)"/><path style="fill:#be443d;fill-opacity:1;fill-rule:nonzero;stroke:none" d="M6199.5 8304c-38.75-143.7-139.75-267-283-326.2-8.5-3.6-17-6.8-25.75-10-8.5-3.1-16.75-6.3-25-9.3-86.5 212.3-157.5 549.8-157.5 549.8L6125 8453l74.5-149" transform="matrix(.13333 0 0 -.13333 0 2666.667)"/><path style="fill:#d28572;fill-opacity:1;fill-rule:nonzero;stroke:none" d="M7100 8775s366.04 391.3 481.25 362.5c50-12.5-100-168.8-100-168.8s143.06-2.7 372.39 115.7c25.08 12.9 55.98 1.9 66.83-24.2 6.83-16.4 4.13-35.1-7.02-48.9-48.55-60.2-193.21-222-394.7-292.6l-85.5-110.4-214.5-102.1L7100 8775" transform="matrix(.13333 0 0 -.13333 0 2666.667)"/><path style="fill:#fe5b52;fill-opacity:1;fill-rule:nonzero;stroke:none" d="m7433.25 8608.3-478.75-853.6c-59.5-105.7-171.25-171.4-292.75-171.4-48.75 0-96.25 10.7-139.5 30.4-43.25 19.8-82.25 48.8-114.25 85.8l-699.75 808.8 443.5 438.9 485.75-666L7100 8775l333.25-166.7" transform="matrix(.13333 0 0 -.13333 0 2666.667)"/><path style="fill:#1b1b43;fill-opacity:1;fill-rule:nonzero;stroke:none" d="M6773.85 8033.9c-280.83 438.4-653.76 957.4-853.85 1128.5l16.25 19c230.86-197.4 648.36-805.7 858.65-1134l-21.05-13.5" transform="matrix(.13333 0 0 -.13333 0 2666.667)"/><path style="fill:#1b1b43;fill-opacity:1;fill-rule:nonzero;stroke:none" d="M6674.22 7559.6c-51.14 0-104.48 14.3-157.91 43.2-153.17 82.7-790.68 864.3-817.75 897.6l19.38 15.7c6.6-8.1 661.42-811 810.25-891.4 169.31-91.4 284.22-8.3 337.64 49.4 85.12 91.9 551.79 931.7 556.49 940.2l21.86-12.1c-19.27-34.7-472.86-850.9-560.01-945.1-59.83-64.6-132.34-97.5-209.95-97.5M5887.5 4179.2 5456.36 3329l94.18-13.3 156.31 221.9 490.03-345.9 287.31 1.2s58.3 57.8-90.94 212.9c-175.47 182.4-275.79 421.5-271.19 671l.4 21.5-117.52 119.9-117.44-39" transform="matrix(.13333 0 0 -.13333 0 2666.667)"/><path style="fill:#393a8f;fill-opacity:1;fill-rule:nonzero;stroke:none" d="m5905.53 3913.5-95.11-720.3h95.11l123.65 241.6 456.56-232.3h361.44s49.62 65.4-119.9 198.1c-199.29 155.9-332.15 378.6-362.57 626.3l-2.62 21.4-133.16 102.2-323.4-237" transform="matrix(.13333 0 0 -.13333 0 2666.667)"/><path style="fill:#1b1b43;fill-opacity:1;fill-rule:nonzero;stroke:none" d="m6412.5 3825 669.14 2353c53.95 189.7-36.47 390.7-214.22 476.2L6264.83 6944l-35.9-2793.5L6412.5 3825" transform="matrix(.13333 0 0 -.13333 0 2666.667)"/><path style="fill:#5254cf;fill-opacity:1;fill-rule:nonzero;stroke:none" d="M4175 7543.8 4040.2 6902c-78.71-374.7 207.25-727 590.16-727h1261.31c-126.18-616.6-44.17-1464.8 0-2337.5l520.83-12.5 359.28 2243.1c60.11 375.2-151.64 741.1-506.95 875.9l-971.08 368.5L4175 7543.8" transform="matrix(.13333 0 0 -.13333 0 2666.667)"/><path style="fill:#8889bc;fill-opacity:1;fill-rule:nonzero;stroke:none" d="m6262.4 3823.4-24.8 3.2c.04.4.16 1.2.33 2.6l25.14-.6c-.41-3.2-.64-4.9-.67-5.2" transform="matrix(.13333 0 0 -.13333 0 2666.667)"/><path style="fill:#9798e2;fill-opacity:1;fill-rule:nonzero;stroke:none" d="m6263.07 3828.6-25.14.6c10.97 85 272.39 2122.7 199.8 2501.8-76.23 398-843.59 512.9-1255.84 574.7-36.69 5.4-70.44 10.5-100.52 15.3-103.27 16.4-176.74 61-218.35 132.5-82.09 141-11.12 334.4-8.06 342.6l23.41-8.8c-.7-1.9-69.84-190.6 6.3-321.3 37.67-64.7 105.17-105.1 200.63-120.3 30-4.8 63.69-9.8 100.29-15.3 418.38-62.7 1197.14-179.3 1276.68-594.7 31.34-163.6 7.21-636.2-71.71-1404.7-55.6-541.4-120.22-1046-127.49-1102.4" transform="matrix(.13333 0 0 -.13333 0 2666.667)"/><path style="fill:#b0b0d2;fill-opacity:1;fill-rule:nonzero;stroke:none" d="m4461.5 6073.5-86.25-498.5-412.75-2385.8H3789L4201.75 5575l86.25 498.5h173.5M5611.5 3189.2H5438L5025.25 5575 4939 6073.5h173.5l86.25-498.5 412.75-2385.8" transform="matrix(.13333 0 0 -.13333 0 2666.667)"/><path style="fill:#8383a7;fill-opacity:1;fill-rule:nonzero;stroke:none" d="M4375.25 5575h-173.5l86.25 498.5h173.5l-86.25-498.5M5198.75 5575h-173.5L4939 6073.5h173.5l86.25-498.5" transform="matrix(.13333 0 0 -.13333 0 2666.667)"/><path style="fill:#cbcbff;fill-opacity:1;fill-rule:nonzero;stroke:none" d="M5466.54 5937.5H3842.95V6175h1623.59c65.58 0 118.75-53.2 118.75-118.8 0-65.5-53.17-118.7-118.75-118.7" transform="matrix(.13333 0 0 -.13333 0 2666.667)"/><path style="fill:#cbcbff;fill-opacity:1;fill-rule:nonzero;stroke:none" d="M4072.12 5937.5h-229.17L3068.9 7834.9c-21.56 52.9 2 113.3 53.62 137.6 55.68 26.3 121.97.4 145.15-56.6l804.45-1978.4" transform="matrix(.13333 0 0 -.13333 0 2666.667)"/><path style="fill:#d28572;fill-opacity:1;fill-rule:nonzero;stroke:none" d="M14617.7 10034.1c-5.8-2.9-166.4-226.8-99.7-250.6 66.7-23.9 152.4-19.6 152.4-19.6l-52.7 270.2" transform="matrix(.13333 0 0 -.13333 0 2666.667)"/><path style="fill:#ffbc96;fill-opacity:1;fill-rule:nonzero;stroke:none" d="m15428.8 9201.3-534.9-63.3 9.9 271.1 10.1 269.9 8.5 230.7 150.8 60.3 236-283 119.6-485.7" transform="matrix(.13333 0 0 -.13333 0 2666.667)"/><path style="fill:#d28572;fill-opacity:1;fill-rule:nonzero;stroke:none" d="M15136.3 9675s-71.3-123.2-232.5-265.9l10.1 269.9 222.4-4" transform="matrix(.13333 0 0 -.13333 0 2666.667)"/><path style="fill:#ffbc96;fill-opacity:1;fill-rule:nonzero;stroke:none" d="m14576.8 10232.3 37.1-575.5c3.2-48.9 33.3-91.9 78.1-111.6 31.2-13.8 66.7-14.8 98.7-2.8l361.1 134.9 62 320.9-273.8 313.2-363.2-79.1" transform="matrix(.13333 0 0 -.13333 0 2666.667)"/><path style="fill:#1b1b43;fill-opacity:1;fill-rule:nonzero;stroke:none" d="M14994.8 9998.4s-88.7 172.2-181.1 198.5c0 0-355.6-115.9-433.9 156.8 0 0 200.3-1.9 372.1 118.4 171.7 120.2 350.9 62.5 474.9-49.7 0 0 405.2-20 85.7-735 0 0-80.3-26.6-284.8 259l-32.9 52" transform="matrix(.13333 0 0 -.13333 0 2666.667)"/><path style="fill:#ffbc96;fill-opacity:1;fill-rule:nonzero;stroke:none" d="M15094.4 9939.5c-36-63-103.9-91.8-151.8-64.5-47.9 27.3-57.6 100.5-21.6 163.5 35.9 62.9 103.9 91.8 151.7 64.5 47.9-27.4 57.6-100.6 21.7-163.5" transform="matrix(.13333 0 0 -.13333 0 2666.667)"/><path style="fill:#ff957b;fill-opacity:1;fill-rule:nonzero;stroke:none" d="M14785.9 9793.8c-54.3 0-98.4 44.7-98.4 99.9 0 55.3 44.1 100 98.4 100 54.4 0 98.5-44.7 98.5-100 0-55.2-44.1-99.9-98.5-99.9" transform="matrix(.13333 0 0 -.13333 0 2666.667)"/><path style="fill:#1b1b43;fill-opacity:1;fill-rule:nonzero;stroke:none" d="M14978.3 9945c-4.9 32.4 4 98.9 73 118.6l6.8-24.1c-65.2-18.6-55.6-87.8-55.1-90.8l-24.7-3.7" transform="matrix(.13333 0 0 -.13333 0 2666.667)"/><path style="fill:#cbcbff;fill-opacity:1;fill-rule:nonzero;stroke:none" d="m14893.9 9138 6.1 278.7 470.8 120.8 137.5-345.8-614.4-53.7" transform="matrix(.13333 0 0 -.13333 0 2666.667)"/><path style="fill:#1b1b43;fill-opacity:1;fill-rule:nonzero;stroke:none" d="M14966.7 9250c-236.4-230-408.4-575-625-925 0 0-734.4-189.6-944.8-400l378.1-191.7 1291.7 358.4-100 1158.3M13057.1 4030.5l-294.6-836.4-921.7 229.9s143.4 196.1 575.9 139.7l230 646.5 410.4-179.7" transform="matrix(.13333 0 0 -.13333 0 2666.667)"/><path style="fill:#393a8f;fill-opacity:1;fill-rule:nonzero;stroke:none" d="m14900 7337.5-1331.3-432.7c-312.5-101.5-551.2-356.2-632.4-674.7L12400 4012.5l725-187.5c284.2 673.7 560.3 1477.7 750 2258.3l1025 1254.2" transform="matrix(.13333 0 0 -.13333 0 2666.667)"/><path style="fill:#1b1b43;fill-opacity:1;fill-rule:nonzero;stroke:none" d="m14416.7 3967.1 108.3-775h-1008.3s91.6 225 525 275l-25 466.7 400 33.3" transform="matrix(.13333 0 0 -.13333 0 2666.667)"/><path style="fill:#5254cf;fill-opacity:1;fill-rule:nonzero;stroke:none" d="m16106.9 7558.4 134.8-641.7c78.7-374.8-202.5-748-585.4-748h-1212.5c68.1-622.9 133.7-1443.8 89.5-2316.5l-663.9-12.5-359.3 2243.1c-60.1 375.2 151.6 741.1 506.9 875.9l883 378.8 1206.9 220.9" transform="matrix(.13333 0 0 -.13333 0 2666.667)"/><path style="fill:#1b1b43;fill-opacity:1;fill-rule:nonzero;stroke:none" d="M16150 7350c-109.2 1043.1-265.4 2027.3-1051.1 1982.1-46.6-2.7-90.4-23.6-123.4-56.6-135.1-135.1-204.2-322.8-189.1-513.3l113.6-1424.7s612.5-112.5 1250 12.5" transform="matrix(.13333 0 0 -.13333 0 2666.667)"/><path style="fill:#ffbc96;fill-opacity:1;fill-rule:nonzero;stroke:none" d="M13396.9 7934.4s-462.5-87.5-537.5-350h656.2l125 87.5-243.7 262.5" transform="matrix(.13333 0 0 -.13333 0 2666.667)"/><path style="fill:#1b1b43;fill-opacity:1;fill-rule:nonzero;stroke:none" d="m15103.1 9103.1-600-931.2-1106.2-237.5 118.7-350 927.6 4.7c249 4.9 462.1 135.1 600.6 342.1l515.6 740.7-456.3 431.2" transform="matrix(.13333 0 0 -.13333 0 2666.667)"/><path style="fill:#5254cf;fill-opacity:1;fill-rule:nonzero;stroke:none" d="m13399.5 7922.2-5.3 24.4 1099.5 236c29.3 82.7 58.4 168.3 86.5 251.2 115.5 339.9 224.6 661 359.9 836.3l19.8-15.2c-132.8-172.1-241.2-491.3-356-829.2-28.9-85.1-58.9-173.2-89-258l-2.3-6.6-6.8-1.4-1106.3-237.5M14059.9 7567c-257.3 0-524.4 4.5-544.5 4.9l.4 25c9.1-.2 903-15.3 1012.7 9.1l3.4.7c265.2 59 485.3 244.7 588.9 496.7l123.9 301.4 23.1-9.6-123.9-301.3c-106.7-259.5-333.4-450.8-606.5-511.6l-3.4-.7c-51.3-11.4-259.3-14.6-474.1-14.6" transform="matrix(.13333 0 0 -.13333 0 2666.667)"/><path style="fill:#b0b0d2;fill-opacity:1;fill-rule:nonzero;stroke:none" d="M16374.1 3189.3h173.5l-499 2884.3H15875l499.1-2884.3M14898.6 3189.3H14725l499.1 2884.3h173.5l-499-2884.3" transform="matrix(.13333 0 0 -.13333 0 2666.667)"/><path style="fill:#b2b2c6;fill-opacity:1;fill-rule:nonzero;stroke:none" d="M15137.8 5575.1h-.3l86.3 498.5h.3l-86.3-498.5" transform="matrix(.13333 0 0 -.13333 0 2666.667)"/><path style="fill:#8383a7;fill-opacity:1;fill-rule:nonzero;stroke:none" d="M15311 5575.1h-173.2l86.3 498.5h173.2l-86.3-498.5" transform="matrix(.13333 0 0 -.13333 0 2666.667)"/><path style="fill:#b2b2c6;fill-opacity:1;fill-rule:nonzero;stroke:none" d="M15961.3 5575.1h-.3l-86.2 498.5h.2l86.3-498.5" transform="matrix(.13333 0 0 -.13333 0 2666.667)"/><path style="fill:#8383a7;fill-opacity:1;fill-rule:nonzero;stroke:none" d="M16134.5 5575.1h-173.2l-86.3 498.5h173.3l86.2-498.5" transform="matrix(.13333 0 0 -.13333 0 2666.667)"/><path style="fill:#cbcbff;fill-opacity:1;fill-rule:nonzero;stroke:none" d="M14870 5937.5h1623.6V6175H14870c-65.6 0-118.7-53.2-118.7-118.8 0-65.5 53.1-118.7 118.7-118.7" transform="matrix(.13333 0 0 -.13333 0 2666.667)"/><path style="fill:#cbcbff;fill-opacity:1;fill-rule:nonzero;stroke:none" d="M16264.4 5937.5h229.2l774.1 1897.4c21.5 52.9-2 113.3-53.6 137.6-55.7 26.3-122 .4-145.2-56.6l-804.5-1978.4" transform="matrix(.13333 0 0 -.13333 0 2666.667)"/><path style="fill:#1b1b43;fill-opacity:1;fill-rule:nonzero;stroke:none" d="M18101.9 3179.2H2177.66v25H18101.9v-25" transform="matrix(.13333 0 0 -.13333 0 2666.667)"/></svg>